<svg width="125" height="59" viewBox="0 0 125 59" fill="none" xmlns="http://www.w3.org/2000/svg">
<g filter="url(#filter0_d_1_4)">
<rect x="6" y="6.00012" width="38" height="38" rx="19" fill="#FF7A59"/>
<rect x="6.74219" y="6.74231" width="36.5156" height="36.5156" rx="18.2578" stroke="white" stroke-width="1.48438"/>
<path fill-rule="evenodd" clip-rule="evenodd" d="M26.994 28.5295C25.7993 28.5295 24.8302 27.571 24.8302 26.3885C24.8302 25.206 25.799 24.2472 26.994 24.2472C28.189 24.2472 29.1584 25.2057 29.1584 26.3885C29.1584 27.5713 28.1896 28.5295 26.994 28.5295ZM27.6421 22.2663V20.36C27.8956 20.244 28.1106 20.0579 28.2619 19.8238C28.4132 19.5897 28.4945 19.3172 28.4962 19.0385V18.9944C28.4962 18.1888 27.8299 17.53 27.0165 17.53H26.9718C26.1593 17.53 25.4921 18.1891 25.4921 18.9944V19.0385C25.4939 19.3172 25.5752 19.5896 25.7265 19.8237C25.8778 20.0578 26.0928 20.2439 26.3462 20.36V22.2663C25.6165 22.3764 24.9284 22.6758 24.3505 23.1347L19.0661 19.0669C19.1031 18.9331 19.123 18.7951 19.1252 18.6563C19.1252 17.7434 18.3786 17.0025 17.4564 17C16.5342 16.9975 15.7861 17.7372 15.7852 18.6503C15.7842 19.5635 16.5305 20.3028 17.4527 20.3044C17.7415 20.3032 18.0251 20.2268 18.2755 20.0828L23.4749 24.086C23.0072 24.7827 22.7628 25.6054 22.7743 26.4445C22.7859 27.2837 23.0528 28.0993 23.5396 28.7829L21.9577 30.3485C21.7705 30.2899 21.5729 30.2725 21.3784 30.2976C21.1839 30.3226 20.9971 30.3896 20.8309 30.4938C20.6648 30.598 20.5232 30.737 20.4159 30.9012C20.3086 31.0654 20.2382 31.2509 20.2096 31.4449C20.1809 31.639 20.1946 31.8369 20.2498 32.0251C20.305 32.2133 20.4003 32.3873 20.5292 32.5351C20.6581 32.683 20.8176 32.8011 20.9965 32.8814C21.1755 32.9616 21.3697 33.0021 21.5658 33.0001C22.3233 33.0001 22.9377 32.392 22.9377 31.6423C22.9364 31.5105 22.9153 31.3797 22.8752 31.2542L24.4377 29.7067C25.1733 30.2642 26.071 30.5657 26.994 30.5651C29.3256 30.5651 31.2146 28.6954 31.2146 26.3885C31.2146 24.3004 29.664 22.576 27.6418 22.2663" fill="white"/>
</g>
<g filter="url(#filter1_d_1_4)">
<rect x="39.25" y="6.00012" width="38" height="38" rx="19" fill="#FDDD4C"/>
<rect x="39.9922" y="6.74231" width="36.5156" height="36.5156" rx="18.2578" stroke="white" stroke-width="1.48438"/>
<path d="M51.4853 28.8784C51.16 28.386 51.9781 27.6407 51.6454 27.0149C51.4535 26.6541 51.14 26.4291 50.7635 26.382C50.4021 26.3366 50.0299 26.4689 49.7926 26.7274C49.418 27.1351 49.3597 27.69 49.4322 27.8864C49.4587 27.9583 49.5004 27.978 49.5302 27.9822C49.7343 28.0091 49.8491 27.4854 49.9195 27.3763C50.1143 27.0757 50.5566 26.9847 50.862 27.1823C51.4412 27.5569 50.939 28.1623 50.9823 28.6736C51.0245 29.1715 51.3347 29.3717 51.6132 29.3927C51.8841 29.4029 52.0735 29.2524 52.1214 29.1426C52.236 28.8802 51.7529 29.2836 51.4853 28.8784Z" fill="black"/>
<path d="M63.5859 24.3582C63.434 24.3373 63.268 24.3377 63.0952 24.3582C62.9641 24.1928 62.8466 23.9248 62.7803 23.6121C62.6624 23.0558 62.6747 22.6528 63.0039 22.6004C63.333 22.5481 63.4921 22.8847 63.61 23.4411C63.6892 23.8151 63.674 24.1587 63.5859 24.3582Z" fill="black"/>
<path d="M59.9809 24.6892C59.994 24.8151 59.9985 24.9426 59.9948 25.06C60.3134 25.0787 60.5389 25.2299 60.599 25.326C60.6298 25.3755 60.6174 25.4078 60.6076 25.4227C60.5745 25.474 60.5039 25.4661 60.3559 25.4495C60.2265 25.435 60.0874 25.4223 59.9426 25.4288C59.8639 25.6704 59.6305 25.693 59.4664 25.5144C59.3519 25.5492 59.1269 25.693 59.0597 25.5368C59.0592 25.4593 59.1402 25.3466 59.287 25.2472C59.1868 25.056 59.1196 24.8515 59.08 24.6396C58.872 24.6771 58.6847 24.7353 58.538 24.781C58.4692 24.8025 58.1966 24.9256 58.1646 24.7869C58.1433 24.691 58.2925 24.533 58.4502 24.4189C58.6264 24.2939 58.8219 24.2049 59.0246 24.1536C59.0203 23.8519 59.0972 23.6413 59.3165 23.6064C59.5883 23.5632 59.7568 23.7725 59.8734 24.16C60.2019 24.2513 60.53 24.4776 60.6748 24.7115C60.7311 24.8023 60.7421 24.8724 60.7055 24.9094C60.6145 25.0037 60.1101 24.7301 59.9809 24.6892Z" fill="black"/>
<path d="M62.1412 26.0455C62.3495 26.1464 62.5788 26.1067 62.6536 25.9567C62.7284 25.8065 62.6201 25.6032 62.4116 25.5022C62.2032 25.4013 61.9741 25.441 61.8991 25.591C61.8243 25.7411 61.9328 25.9444 62.1412 26.0455Z" fill="black"/>
<path d="M63.1672 25.3002C63.1709 25.0707 63.3116 24.8874 63.4807 24.8902C63.6498 24.8935 63.7838 25.0814 63.78 25.3105C63.7762 25.5396 63.6355 25.7229 63.4665 25.72C63.2974 25.7172 63.1634 25.5293 63.1672 25.3002Z" fill="black"/>
<path fill-rule="evenodd" clip-rule="evenodd" d="M67.7521 28.1112C67.7507 28.1064 67.7554 28.123 67.7521 28.1112C68.0916 28.1112 68.6249 28.4965 68.6249 29.4272C68.6249 30.3534 68.2356 31.4024 68.1437 31.6353C66.7414 34.9527 63.3944 36.7993 59.4075 36.6825C55.6906 36.5736 52.5207 34.6376 51.1335 31.4815C50.2947 31.4824 49.4299 31.1182 48.7726 30.5432C48.0797 29.9373 47.6525 29.1533 47.5691 28.3356C47.5042 27.699 47.5833 27.1066 47.7856 26.59L47.0065 25.9383C43.4411 22.9669 54.5923 10.7324 58.1586 13.8029C58.1765 13.8183 59.372 14.9759 59.3748 14.9787C61.0944 14.258 65.7019 12.8858 65.707 16.0801C65.7089 17.1409 65.0241 18.3779 63.9267 19.5003C65.1949 20.6612 64.8605 22.3103 65.0624 23.8234L65.5028 23.9439C66.3425 24.1763 66.9398 24.4863 67.2321 24.7892C67.5243 25.0917 67.6692 25.3848 67.7218 25.7284C67.771 26.0056 67.7644 26.4951 67.394 27.0425C67.5273 27.3957 67.6491 27.7478 67.7521 28.1112ZM51.0705 30.6209C51.1951 30.6236 51.3187 30.6156 51.4399 30.5951C52.7429 30.3758 53.0838 28.979 52.8693 27.6073C52.6268 26.0584 51.5654 25.5124 50.8451 25.4736C50.6447 25.4633 50.4586 25.4811 50.3052 25.5115C49.0193 25.7672 48.2933 26.8471 48.4363 28.2497C48.5656 29.5189 49.8661 30.589 51.0705 30.6209ZM48.1583 25.8921C48.5898 25.2736 49.295 24.8261 50.0954 24.6723C51.1141 21.973 52.8153 19.4859 55.0669 17.7743C56.7378 16.3985 58.5398 15.4116 58.5398 15.4116C58.5398 15.4116 57.5694 14.3008 57.2763 14.219C55.4732 13.7384 51.5792 16.3891 49.0927 19.8917C48.0868 21.3086 46.6465 23.8181 47.3352 25.109C47.4199 25.2689 47.9006 25.6798 48.1583 25.8921ZM62.7763 30.0009C62.7791 30.0299 62.7612 30.0598 62.7351 30.0706C62.7351 30.0706 61.2863 30.7358 58.985 30.0332C59.0678 30.723 59.9043 30.9843 60.4888 31.079C63.3403 31.5633 66.0064 29.9537 66.6064 29.5484C66.7094 29.4788 66.6051 29.6577 66.5865 29.6839C65.8519 30.6194 63.877 31.7026 61.3076 31.7022C60.187 31.7016 59.067 31.3122 58.6558 30.7134C58.0179 29.7844 58.6242 28.4283 59.6874 28.5694C61.4847 28.7698 63.3272 28.6192 64.9909 27.857C66.4416 27.1921 66.9895 26.461 66.9072 25.8687C66.7793 24.9507 65.4184 24.8071 64.7304 24.584C64.4311 24.4863 64.2833 24.4082 64.2497 23.8524C64.2351 23.6097 64.1924 22.7631 64.1767 22.4129C64.1493 21.8 64.0744 20.9618 63.5478 20.6159C63.4104 20.5255 63.258 20.4821 63.0974 20.4737C62.9694 20.4675 62.8934 20.4852 62.8526 20.4946C62.8435 20.4967 62.8361 20.4984 62.8303 20.4994C62.5459 20.5471 62.3716 20.691 62.1661 20.8607C62.1544 20.8704 62.1423 20.8803 62.1303 20.8902C61.4734 21.4307 60.9188 21.519 60.3017 21.4929C60.1095 21.4848 59.9114 21.4657 59.7024 21.4454C59.5102 21.4268 59.3089 21.4072 59.0944 21.3947L58.8325 21.3797C57.7991 21.3273 56.6908 22.2081 56.5066 23.4591C56.3008 24.8556 57.0813 25.7109 57.5889 26.2671C57.7143 26.4046 57.8231 26.5237 57.8962 26.6284C57.9431 26.6915 57.9976 26.7803 57.9976 26.8649C57.9976 26.9659 57.9312 27.0458 57.8664 27.114C56.8121 28.1842 56.4749 29.8845 56.8723 31.3015C56.922 31.4782 56.9849 31.6474 57.0593 31.8092C57.9914 33.9593 60.8833 34.9607 63.7078 34.0499C65.6875 33.4116 67.4366 31.8692 67.7928 29.7414C67.8776 29.187 67.753 28.9729 67.5835 28.8695C67.404 28.7606 67.1889 28.7984 67.1889 28.7984C67.1889 28.7984 67.0909 28.1361 66.8133 27.5339C65.9898 28.1753 64.9298 28.626 64.1228 28.8545C62.8298 29.2208 61.433 29.3633 60.0969 29.1906C59.5549 29.1206 59.1908 29.0735 59.0347 29.5741C60.817 30.2183 62.7034 29.9424 62.7034 29.9424C62.7398 29.9387 62.7725 29.9649 62.7763 30.0009ZM57.6343 17.4994C56.6596 17.9917 55.5713 18.8682 54.6875 19.8767C54.6562 19.9127 54.7027 19.9622 54.741 19.9347C55.5044 19.3863 56.5511 18.8767 57.9223 18.5466C59.4581 18.1768 60.9368 18.3321 61.84 18.5364C61.8854 18.5466 61.9138 18.4695 61.8736 18.4471C61.2768 18.1165 60.3608 17.8921 59.7111 17.8875C59.6793 17.887 59.6614 17.8505 59.6803 17.8253C59.7925 17.6762 59.9465 17.5289 60.0871 17.4223C60.1184 17.398 60.0995 17.348 60.0596 17.3503C59.2514 17.3993 57.4051 18.2411 57.4117 18.2105C57.459 17.9861 57.6082 17.6897 57.6854 17.5513C57.7039 17.5186 57.6679 17.4826 57.6343 17.4994Z" fill="black"/>
</g>
<g filter="url(#filter2_d_1_4)">
<rect x="72.5" y="6.00012" width="38" height="38" rx="19" fill="white"/>
<rect x="73.2422" y="6.74231" width="36.5156" height="36.5156" rx="18.2578" stroke="white" stroke-width="1.48438"/>
<g clip-path="url(#clip0_1_4)">
<path d="M81.9599 28.0162L88.6 16.6484C89.4434 17.145 93.6966 19.4988 94.3835 19.9464L87.7434 31.3148C87.0172 32.2741 81.0399 29.472 81.9599 28.0155V28.0162Z" fill="#FBBC04"/>
<path d="M101.038 28.0159L94.398 16.6489C93.4697 15.104 91.4703 14.5427 89.8282 15.4551C88.1862 16.3675 87.6861 18.333 88.6144 19.9469L95.2545 31.3153C96.1828 32.8594 98.1821 33.4208 99.8242 32.5084C101.395 31.596 101.966 29.5608 101.038 28.0173V28.0159Z" fill="#4285F4"/>
<path d="M84.8329 32.9478C86.6737 32.9478 88.166 31.4925 88.166 29.6974C88.166 27.9023 86.6737 26.447 84.8329 26.447C82.9921 26.447 81.4998 27.9023 81.4998 29.6974C81.4998 31.4925 82.9921 32.9478 84.8329 32.9478Z" fill="#34A853"/>
</g>
</g>
<defs>
<filter id="filter0_d_1_4" x="0" y="0.00012207" width="58.02" height="58.02" filterUnits="userSpaceOnUse" color-interpolation-filters="sRGB">
<feFlood flood-opacity="0" result="BackgroundImageFix"/>
<feColorMatrix in="SourceAlpha" type="matrix" values="0 0 0 0 0 0 0 0 0 0 0 0 0 0 0 0 0 0 127 0" result="hardAlpha"/>
<feOffset dx="4.01" dy="4.01"/>
<feGaussianBlur stdDeviation="5.005"/>
<feComposite in2="hardAlpha" operator="out"/>
<feColorMatrix type="matrix" values="0 0 0 0 0 0 0 0 0 0 0 0 0 0 0 0 0 0 0.05 0"/>
<feBlend mode="normal" in2="BackgroundImageFix" result="effect1_dropShadow_1_4"/>
<feBlend mode="normal" in="SourceGraphic" in2="effect1_dropShadow_1_4" result="shape"/>
</filter>
<filter id="filter1_d_1_4" x="33.25" y="0.00012207" width="58.02" height="58.02" filterUnits="userSpaceOnUse" color-interpolation-filters="sRGB">
<feFlood flood-opacity="0" result="BackgroundImageFix"/>
<feColorMatrix in="SourceAlpha" type="matrix" values="0 0 0 0 0 0 0 0 0 0 0 0 0 0 0 0 0 0 127 0" result="hardAlpha"/>
<feOffset dx="4.01" dy="4.01"/>
<feGaussianBlur stdDeviation="5.005"/>
<feComposite in2="hardAlpha" operator="out"/>
<feColorMatrix type="matrix" values="0 0 0 0 0 0 0 0 0 0 0 0 0 0 0 0 0 0 0.05 0"/>
<feBlend mode="normal" in2="BackgroundImageFix" result="effect1_dropShadow_1_4"/>
<feBlend mode="normal" in="SourceGraphic" in2="effect1_dropShadow_1_4" result="shape"/>
</filter>
<filter id="filter2_d_1_4" x="66.5" y="0.00012207" width="58.02" height="58.02" filterUnits="userSpaceOnUse" color-interpolation-filters="sRGB">
<feFlood flood-opacity="0" result="BackgroundImageFix"/>
<feColorMatrix in="SourceAlpha" type="matrix" values="0 0 0 0 0 0 0 0 0 0 0 0 0 0 0 0 0 0 127 0" result="hardAlpha"/>
<feOffset dx="4.01" dy="4.01"/>
<feGaussianBlur stdDeviation="5.005"/>
<feComposite in2="hardAlpha" operator="out"/>
<feColorMatrix type="matrix" values="0 0 0 0 0 0 0 0 0 0 0 0 0 0 0 0 0 0 0.05 0"/>
<feBlend mode="normal" in2="BackgroundImageFix" result="effect1_dropShadow_1_4"/>
<feBlend mode="normal" in="SourceGraphic" in2="effect1_dropShadow_1_4" result="shape"/>
</filter>
<clipPath id="clip0_1_4">
<rect width="20.0002" height="20.0002" fill="white" transform="translate(81.5 14)"/>
</clipPath>
</defs>
</svg>
