<svg width="192" height="59" viewBox="0 0 192 59" fill="none" xmlns="http://www.w3.org/2000/svg">
<g filter="url(#filter0_d_1_4)">
<rect x="6" y="6" width="38" height="38" rx="19" fill="#E5532C"/>
<rect x="6.74219" y="6.74219" width="36.5156" height="36.5156" rx="18.2578" stroke="white" stroke-width="1.48438"/>
<rect x="15.6055" y="15.1107" width="16.4692" height="20.5865" fill="white"/>
<path d="M12.863 13.7325L14.5808 35.7086C14.6066 36.0386 14.8299 36.32 15.1455 36.4201L24.1846 39.2859C24.3444 39.3366 24.5161 39.3366 24.6759 39.2859L33.715 36.4201C34.0305 36.32 34.2539 36.0386 34.2797 35.7086L35.9975 13.7325C36.0344 13.26 35.661 12.8563 35.1872 12.8563H13.6734C13.1995 12.8563 12.8261 13.26 12.863 13.7325ZM31.5923 20.551H20.3971L20.735 23.6666H31.3488L30.6545 32.5487L24.4303 34.522L18.206 32.5487L17.8433 27.9083H21.1103V30.1845L24.5176 31.0989L27.9045 30.1845L28.1673 26.5569H17.7377L17.0452 17.6981H31.8153L31.5923 20.551Z" fill="#E5532C"/>
</g>
<g filter="url(#filter1_d_1_4)">
<rect x="39.25" y="6" width="38" height="38" rx="19" fill="#0C73B8"/>
<rect x="39.9922" y="6.74219" width="36.5156" height="36.5156" rx="18.2578" stroke="white" stroke-width="1.48438"/>
<path d="M65.7148 19.1767L65.4242 22.4326L64.5469 32.193L58 33.9982L57.9946 34L51.4513 32.193L50.9946 27.0887H54.2004L54.4386 29.7362L57.9964 30.6937L57.9982 30.6919L61.5614 29.7344L62.0469 25.3231L50.8412 25.3537L50.5235 22.3372L62.3159 22.1986L62.5542 18.9697L50.2076 19.0039L50 16H58H66L65.7148 19.1767Z" fill="#EDEEF6"/>
</g>
<g filter="url(#filter2_d_1_4)">
<rect x="72.5" y="6" width="38" height="38" rx="19" fill="#5DC6DD"/>
<rect x="73.2422" y="6.74219" width="36.5156" height="36.5156" rx="18.2578" stroke="white" stroke-width="1.48438"/>
<path d="M91.5257 27.11C92.7325 27.11 93.7107 26.1317 93.7107 24.925C93.7107 23.7183 92.7325 22.74 91.5257 22.74C90.319 22.74 89.3407 23.7183 89.3407 24.925C89.3407 26.1317 90.319 27.11 91.5257 27.11Z" fill="white"/>
<path fill-rule="evenodd" clip-rule="evenodd" d="M87.5358 18.0146C86.8752 17.901 86.2539 17.8456 85.6865 17.8485C83.9349 17.858 82.6538 18.4421 82.0645 19.4625C81.4753 20.4837 81.61 21.885 82.4775 23.4065C82.7586 23.8996 83.1177 24.4101 83.546 24.925C83.1177 25.4407 82.7586 25.9505 82.4775 26.4444C81.61 27.9651 81.4753 29.3672 82.0645 30.3876C82.6538 31.4087 83.9349 31.9928 85.6865 32.0023C86.2539 32.0052 86.8752 31.9499 87.5358 31.8362C87.7681 32.4648 88.0303 33.0307 88.3173 33.5209C89.2008 35.0329 90.3472 35.8501 91.5256 35.8501C92.7048 35.8501 93.8512 35.0329 94.7347 33.5209C95.0216 33.0307 95.2838 32.4648 95.5162 31.8362C96.1768 31.9499 96.798 32.0052 97.3654 32.0023C99.1171 31.9928 100.398 31.4087 100.987 30.3876C101.577 29.3672 101.442 27.9651 100.574 26.4444C100.293 25.9505 99.9343 25.4407 99.506 24.925C99.9343 24.4101 100.293 23.8996 100.574 23.4065C101.442 21.885 101.577 20.4837 100.987 19.4625C100.398 18.4421 99.1171 17.858 97.3654 17.8485C96.798 17.8456 96.1768 17.901 95.5162 18.0146C95.2838 17.386 95.0216 16.8194 94.7347 16.3292C93.8512 14.8179 92.7048 14 91.5256 14C90.3472 14 89.2008 14.8179 88.3173 16.3292C88.0303 16.8194 87.7681 17.386 87.5358 18.0146ZM91.5256 30.6177C90.648 30.9921 89.7885 31.2922 88.9684 31.5158C89.1512 31.9834 89.3544 32.4094 89.5744 32.786C90.1381 33.7503 90.774 34.3934 91.5256 34.3934C92.2773 34.3934 92.9138 33.7503 93.4776 32.786C93.6975 32.4094 93.9 31.9834 94.0835 31.5158C93.2634 31.2922 92.404 30.9921 91.5256 30.6177ZM98.5118 26.0059C97.908 26.6039 97.219 27.1982 96.4557 27.7714C96.3407 28.719 96.171 29.6134 95.9546 30.4349C96.4514 30.5107 96.9219 30.5478 97.3581 30.5456C98.4747 30.5398 99.3501 30.3104 99.726 29.6592C100.102 29.0088 99.8622 28.1356 99.3094 27.1654C99.093 26.7867 98.8257 26.3977 98.5118 26.0059ZM84.5401 26.0059C84.2262 26.3977 83.9589 26.7867 83.7426 27.1654C83.1898 28.1356 82.9502 29.0088 83.326 29.6592C83.7018 30.3104 84.5773 30.5398 85.6938 30.5456C86.1301 30.5478 86.6006 30.5107 87.0973 30.4349C86.881 29.6134 86.7106 28.719 86.5962 27.7714C85.8329 27.1982 85.1439 26.6039 84.5401 26.0059ZM88.2386 28.8967C88.3195 29.3264 88.4134 29.7394 88.519 30.1334C88.9131 30.0278 89.318 29.9025 89.7303 29.7583C89.479 29.6243 89.2277 29.4852 88.9764 29.341C88.7259 29.196 88.4797 29.0482 88.2386 28.8967ZM94.8133 28.8967C94.5723 29.0482 94.3261 29.196 94.0748 29.341C93.8243 29.4852 93.573 29.6243 93.3217 29.7583C93.7347 29.9025 94.1389 30.0278 94.5329 30.1334C94.6385 29.7394 94.7325 29.3264 94.8133 28.8967ZM91.5256 20.8245C92.128 21.1042 92.7376 21.4196 93.3465 21.7714C93.9561 22.1231 94.5344 22.4931 95.077 22.8748C95.1367 23.5361 95.1673 24.2222 95.1673 24.925C95.1673 25.6286 95.1367 26.3147 95.077 26.9753C94.5344 27.3577 93.9561 27.7277 93.3465 28.0787C92.7376 28.4305 92.128 28.7466 91.5256 29.0256C90.924 28.7466 90.3144 28.4305 89.7048 28.0787C89.0959 27.7277 88.5176 27.3577 87.975 26.9753C87.9153 26.3147 87.8839 25.6286 87.8839 24.925C87.8839 24.2222 87.9153 23.5361 87.975 22.8748C88.5176 22.4931 89.0959 22.1231 89.7048 21.7714C90.3144 21.4196 90.924 21.1042 91.5256 20.8245ZM96.6094 24.0642C96.6189 24.3482 96.624 24.6359 96.624 24.925C96.624 25.2149 96.6189 25.5019 96.6094 25.7859C96.9408 25.5012 97.2518 25.2135 97.5395 24.925C97.2518 24.6366 96.9408 24.3489 96.6094 24.0642ZM86.4426 24.0642C86.1112 24.3489 85.8002 24.6366 85.5117 24.925C85.8002 25.2135 86.1112 25.5019 86.4426 25.7859C86.4324 25.5019 86.4273 25.2149 86.4273 24.925C86.4273 24.6359 86.4324 24.3482 86.4426 24.0642ZM87.0973 19.4152C86.6006 19.3402 86.1301 19.303 85.6938 19.3052C84.5773 19.311 83.7018 19.5405 83.326 20.1909C82.9502 20.842 83.1898 21.7145 83.7426 22.6847C83.9589 23.0641 84.2262 23.4524 84.5401 23.8449C85.1432 23.247 85.8329 22.6519 86.5962 22.0794C86.7106 21.1319 86.881 20.2375 87.0973 19.4152ZM98.5118 23.8449C98.8257 23.4524 99.093 23.0641 99.3094 22.6847C99.8622 21.7145 100.102 20.842 99.726 20.1909C99.3501 19.5405 98.4747 19.311 97.3581 19.3052C96.9219 19.303 96.4514 19.3402 95.9546 19.4152C96.171 20.2375 96.3407 21.1319 96.4557 22.0794C97.219 22.6519 97.908 23.247 98.5118 23.8449ZM88.519 19.7174C88.4134 20.1115 88.3195 20.5244 88.2386 20.9534C88.4797 20.8027 88.7259 20.6548 88.9764 20.5099C89.2277 20.3649 89.479 20.2258 89.7303 20.0925C89.3173 19.9476 88.9131 19.8223 88.519 19.7174ZM94.5329 19.7174C94.1389 19.8223 93.7339 19.9476 93.3217 20.0925C93.573 20.2258 93.8243 20.3649 94.0748 20.5099C94.3261 20.6548 94.5723 20.8027 94.8133 20.9534C94.7325 20.5244 94.6385 20.1107 94.5329 19.7174ZM94.0835 18.3351C93.9 17.8675 93.6975 17.4414 93.4776 17.0648C92.9138 16.1005 92.2773 15.4567 91.5256 15.4567C90.774 15.4567 90.1381 16.1005 89.5744 17.0648C89.3544 17.4414 89.1512 17.8675 88.9684 18.3351C89.7885 18.5587 90.648 18.8587 91.5256 19.2331C92.404 18.8587 93.2634 18.5587 94.0835 18.3351Z" fill="white"/>
</g>
<g filter="url(#filter3_d_1_4)">
<rect x="105.75" y="6" width="38" height="38" rx="19" fill="#7B7FB5"/>
<rect x="106.492" y="6.74219" width="36.5156" height="36.5156" rx="18.2578" stroke="white" stroke-width="1.48438"/>
<g clip-path="url(#clip0_1_4)">
<path d="M139 25C139 25.8468 138.925 26.676 138.781 27.4811C137.61 34.0297 131.885 39 125 39C119.813 39 115.284 36.1788 112.866 31.9869C112.275 30.9646 111.811 29.8612 111.494 28.6971C111.171 27.5195 111 26.2794 111 25C111 17.268 117.268 11 125 11C131.382 11 136.766 15.2697 138.452 21.1085C138.809 22.344 139 23.6497 139 25Z" fill="#7B7FB5"/>
<path d="M118.119 20.7474H112.963L111.494 28.6971C111.811 29.8612 112.275 30.9646 112.866 31.9869H113.344L113.913 28.908H116.746C120.196 28.908 121.123 25.8109 121.346 24.2897C121.569 22.7691 120.456 20.7474 118.119 20.7474ZM118.867 24.5462C118.741 25.4086 118.103 27.1645 116.148 27.1645H114.235L115.09 22.5377H117.037C118.935 22.5377 118.993 23.684 118.867 24.5462Z" fill="#EDEEF6"/>
<path d="M138.452 21.1086C138.014 20.8823 137.491 20.7474 136.888 20.7474H131.732L129.655 31.9869H132.113L132.682 28.9081H135.515C137.05 28.9081 138.085 28.2955 138.78 27.4812C138.925 26.6761 139 25.8469 139 25C139 23.6498 138.809 22.344 138.452 21.1086ZM137.636 24.5463C137.51 25.4086 136.872 27.1646 134.916 27.1646H133.005L133.859 22.5377H135.806C137.704 22.5377 137.762 23.684 137.636 24.5463Z" fill="#EDEEF6"/>
<path d="M127.911 20.7847C126.911 20.7847 125.576 20.7847 124.926 20.7847L125.486 17.7522H123.038L120.961 28.9914H123.409L124.603 22.5281C125.045 22.5281 125.631 22.5281 126.168 22.5281C127.207 22.5281 127.911 22.7506 127.763 23.715C127.615 24.6795 126.761 28.9451 126.761 28.9451H129.247C129.247 28.9451 130.211 24.1973 130.359 22.8619C130.508 21.5265 129.284 20.7847 127.911 20.7847Z" fill="#EDEEF6"/>
</g>
</g>
<g filter="url(#filter4_d_1_4)">
<rect x="139" y="6" width="38" height="38" rx="19" fill="#3C77A8"/>
<rect x="139.742" y="6.74219" width="36.5156" height="36.5156" rx="18.2578" stroke="white" stroke-width="1.48438"/>
<path d="M158.011 15.0002C157.176 15.004 156.378 15.0746 155.676 15.1976C153.608 15.5595 153.232 16.3168 153.232 17.7136V19.5582H158.119V20.1731H153.232H151.398C149.978 20.1731 148.734 21.0186 148.345 22.627C147.896 24.4706 147.876 25.6211 148.345 27.5461C148.692 28.979 149.522 30 150.942 30H152.623V27.7886C152.623 26.1911 154.018 24.7819 155.676 24.7819H160.557C161.916 24.7819 163.001 23.6739 163.001 22.3224V17.7136C163.001 16.4019 161.884 15.4165 160.557 15.1976C159.718 15.0592 158.847 14.9963 158.011 15.0002ZM155.368 16.4838C155.873 16.4838 156.285 16.8988 156.285 17.4089C156.285 17.9173 155.873 18.3284 155.368 18.3284C154.862 18.3284 154.451 17.9173 154.451 17.4089C154.451 16.8987 154.862 16.4838 155.368 16.4838Z" fill="white"/>
<path d="M163.358 20.0001V22.133C163.358 23.7866 161.935 25.1784 160.311 25.1784H155.44C154.105 25.1784 153.001 26.3031 153.001 27.6192V32.193C153.001 33.4946 154.15 34.2603 155.44 34.6338C156.984 35.0808 158.464 35.1616 160.311 34.6338C161.539 34.2837 162.75 33.5791 162.75 32.193V30.3623H157.878V29.7521H162.75H165.188C166.606 29.7521 167.134 28.7784 167.627 27.3169C168.136 25.8123 168.115 24.3654 167.627 22.4352C167.277 21.0455 166.608 20 165.188 20H163.358V20.0001ZM160.618 31.5828C161.124 31.5828 161.533 31.9908 161.533 32.4953C161.533 33.0016 161.124 33.4134 160.618 33.4134C160.114 33.4134 159.703 33.0016 159.703 32.4953C159.703 31.9908 160.114 31.5828 160.618 31.5828Z" fill="#FFD348"/>
</g>
<defs>
<filter id="filter0_d_1_4" x="0" y="0" width="58.02" height="58.02" filterUnits="userSpaceOnUse" color-interpolation-filters="sRGB">
<feFlood flood-opacity="0" result="BackgroundImageFix"/>
<feColorMatrix in="SourceAlpha" type="matrix" values="0 0 0 0 0 0 0 0 0 0 0 0 0 0 0 0 0 0 127 0" result="hardAlpha"/>
<feOffset dx="4.01" dy="4.01"/>
<feGaussianBlur stdDeviation="5.005"/>
<feComposite in2="hardAlpha" operator="out"/>
<feColorMatrix type="matrix" values="0 0 0 0 0 0 0 0 0 0 0 0 0 0 0 0 0 0 0.05 0"/>
<feBlend mode="normal" in2="BackgroundImageFix" result="effect1_dropShadow_1_4"/>
<feBlend mode="normal" in="SourceGraphic" in2="effect1_dropShadow_1_4" result="shape"/>
</filter>
<filter id="filter1_d_1_4" x="33.25" y="0" width="58.02" height="58.02" filterUnits="userSpaceOnUse" color-interpolation-filters="sRGB">
<feFlood flood-opacity="0" result="BackgroundImageFix"/>
<feColorMatrix in="SourceAlpha" type="matrix" values="0 0 0 0 0 0 0 0 0 0 0 0 0 0 0 0 0 0 127 0" result="hardAlpha"/>
<feOffset dx="4.01" dy="4.01"/>
<feGaussianBlur stdDeviation="5.005"/>
<feComposite in2="hardAlpha" operator="out"/>
<feColorMatrix type="matrix" values="0 0 0 0 0 0 0 0 0 0 0 0 0 0 0 0 0 0 0.05 0"/>
<feBlend mode="normal" in2="BackgroundImageFix" result="effect1_dropShadow_1_4"/>
<feBlend mode="normal" in="SourceGraphic" in2="effect1_dropShadow_1_4" result="shape"/>
</filter>
<filter id="filter2_d_1_4" x="66.5" y="0" width="58.02" height="58.02" filterUnits="userSpaceOnUse" color-interpolation-filters="sRGB">
<feFlood flood-opacity="0" result="BackgroundImageFix"/>
<feColorMatrix in="SourceAlpha" type="matrix" values="0 0 0 0 0 0 0 0 0 0 0 0 0 0 0 0 0 0 127 0" result="hardAlpha"/>
<feOffset dx="4.01" dy="4.01"/>
<feGaussianBlur stdDeviation="5.005"/>
<feComposite in2="hardAlpha" operator="out"/>
<feColorMatrix type="matrix" values="0 0 0 0 0 0 0 0 0 0 0 0 0 0 0 0 0 0 0.05 0"/>
<feBlend mode="normal" in2="BackgroundImageFix" result="effect1_dropShadow_1_4"/>
<feBlend mode="normal" in="SourceGraphic" in2="effect1_dropShadow_1_4" result="shape"/>
</filter>
<filter id="filter3_d_1_4" x="99.75" y="0" width="58.02" height="58.02" filterUnits="userSpaceOnUse" color-interpolation-filters="sRGB">
<feFlood flood-opacity="0" result="BackgroundImageFix"/>
<feColorMatrix in="SourceAlpha" type="matrix" values="0 0 0 0 0 0 0 0 0 0 0 0 0 0 0 0 0 0 127 0" result="hardAlpha"/>
<feOffset dx="4.01" dy="4.01"/>
<feGaussianBlur stdDeviation="5.005"/>
<feComposite in2="hardAlpha" operator="out"/>
<feColorMatrix type="matrix" values="0 0 0 0 0 0 0 0 0 0 0 0 0 0 0 0 0 0 0.05 0"/>
<feBlend mode="normal" in2="BackgroundImageFix" result="effect1_dropShadow_1_4"/>
<feBlend mode="normal" in="SourceGraphic" in2="effect1_dropShadow_1_4" result="shape"/>
</filter>
<filter id="filter4_d_1_4" x="133" y="0" width="58.02" height="58.02" filterUnits="userSpaceOnUse" color-interpolation-filters="sRGB">
<feFlood flood-opacity="0" result="BackgroundImageFix"/>
<feColorMatrix in="SourceAlpha" type="matrix" values="0 0 0 0 0 0 0 0 0 0 0 0 0 0 0 0 0 0 127 0" result="hardAlpha"/>
<feOffset dx="4.01" dy="4.01"/>
<feGaussianBlur stdDeviation="5.005"/>
<feComposite in2="hardAlpha" operator="out"/>
<feColorMatrix type="matrix" values="0 0 0 0 0 0 0 0 0 0 0 0 0 0 0 0 0 0 0.05 0"/>
<feBlend mode="normal" in2="BackgroundImageFix" result="effect1_dropShadow_1_4"/>
<feBlend mode="normal" in="SourceGraphic" in2="effect1_dropShadow_1_4" result="shape"/>
</filter>
<clipPath id="clip0_1_4">
<rect width="28" height="28" fill="white" transform="translate(111 11)"/>
</clipPath>
</defs>
</svg>
