<svg width="53" height="54" viewBox="0 0 53 54" fill="none" xmlns="http://www.w3.org/2000/svg">
<g id="user-avatar (1) 1">
<g id="user-star">
<path id="Vector" d="M13.2947 14.9688C13.2947 13.2382 13.8079 11.5464 14.7694 10.1075C15.7308 8.66858 17.0974 7.54707 18.6962 6.88481C20.2951 6.22254 22.0544 6.04926 23.7518 6.38688C25.4491 6.7245 27.0082 7.55786 28.2319 8.78157C29.4556 10.0053 30.289 11.5644 30.6266 13.2617C30.9642 14.959 30.7909 16.7184 30.1287 18.3172C29.4664 19.9161 28.3449 21.2826 26.906 22.2441C25.467 23.2056 23.7753 23.7188 22.0447 23.7188C19.7241 23.7188 17.4985 22.7969 15.8575 21.1559C14.2166 19.515 13.2947 17.2894 13.2947 14.9688ZM28.8063 41.9188C28.2268 41.3783 27.8138 40.6834 27.6162 39.916C27.4185 39.1486 27.4444 38.3407 27.6907 37.5875C27.9301 36.8239 28.3826 36.1445 28.9948 35.6291C29.607 35.1138 30.3536 34.7839 31.1469 34.6781L33.8813 34.2844C33.8813 34.2844 34.3188 34.2428 34.45 33.9781L35.325 32.2281C35.3951 32.1014 35.4256 31.9567 35.4125 31.8125C35.3853 31.6892 35.3247 31.5757 35.2375 31.4844C34.0872 30.3275 32.7049 29.4273 31.1818 28.843C29.6586 28.2586 28.029 28.0032 26.4 28.0938H17.65C8.76878 28.0938 5.61878 34.5906 5.61878 40.1688C5.61878 45.1563 8.26565 47.7813 13.275 47.7813H29.8782C30.2282 47.7813 30.4513 47.5188 30.5563 46.95L30.9938 44.4344C31.0172 44.3273 31.0113 44.2159 30.9767 44.112C30.942 44.008 30.8799 43.9153 30.7969 43.8438L28.8063 41.9188ZM47.9841 39.5541C48.1135 39.4296 48.205 39.271 48.2481 39.0967C48.2911 38.9223 48.284 38.7394 48.2275 38.569C48.171 38.3985 48.0674 38.2475 47.9287 38.1335C47.79 38.0194 47.6219 37.9469 47.4438 37.9244L43.0863 37.3053C42.931 37.2838 42.7833 37.225 42.6556 37.1339C42.528 37.0429 42.4244 36.9223 42.3535 36.7825L40.4635 33.0375C40.3749 32.8658 40.2408 32.7218 40.0759 32.6213C39.9109 32.5208 39.7215 32.4676 39.5283 32.4676C39.3351 32.4676 39.1457 32.5208 38.9807 32.6213C38.8158 32.7218 38.6817 32.8658 38.5932 33.0375L36.7053 36.7825C36.6343 36.9222 36.5306 37.0427 36.403 37.1337C36.2754 37.2247 36.1277 37.2836 35.9725 37.3053L31.615 37.9244C31.4364 37.9461 31.2677 38.0182 31.1284 38.1321C30.9892 38.2461 30.8852 38.3972 30.8285 38.568C30.7719 38.7388 30.765 38.9222 30.8086 39.0968C30.8522 39.2713 30.9445 39.4299 31.0747 39.5541L34.2247 42.5597C34.3382 42.6669 34.4233 42.8005 34.4726 42.9486C34.5218 43.0967 34.5336 43.2547 34.5069 43.4084L33.7872 47.5188C33.7568 47.7093 33.7802 47.9045 33.8547 48.0825C33.9292 48.2605 34.0519 48.4142 34.2089 48.5262C34.366 48.6383 34.5512 48.7043 34.7437 48.7168C34.9363 48.7294 35.1285 48.6879 35.2988 48.5972L39.0766 46.6547C39.2166 46.5824 39.3718 46.5446 39.5294 46.5446C39.687 46.5446 39.8422 46.5824 39.9822 46.6547L43.7622 48.5994C43.9324 48.6895 44.1244 48.7305 44.3166 48.7176C44.5087 48.7048 44.6935 48.6387 44.8503 48.5267C45.007 48.4147 45.1294 48.2613 45.2038 48.0837C45.2782 47.906 45.3017 47.7112 45.2716 47.5209L44.5563 43.4063C44.5297 43.2527 44.5413 43.0949 44.5902 42.9469C44.639 42.7988 44.7235 42.6651 44.8363 42.5575L47.9841 39.5541Z" fill="#1D2345"/>
</g>
</g>
</svg>
