<svg width="54" height="54" viewBox="0 0 54 54" fill="none" xmlns="http://www.w3.org/2000/svg">
<g id="maps 1">
<g id="Group">
<path id="Vector" d="M41.6352 5.75C37.122 5.75 33.411 9.2484 33.0702 13.6751C33.0542 13.8941 33.0457 14.1163 33.0457 14.3395C33.0457 20.8802 40.5808 28.4367 40.6567 28.5126C40.9099 28.7636 41.2485 28.9046 41.6106 28.91C41.6191 28.911 41.6266 28.911 41.6352 28.911C42.0069 28.911 42.3541 28.769 42.6137 28.5115C42.6895 28.4367 50.2247 20.8791 50.2247 14.3395C50.2247 9.60305 46.3716 5.75 41.6352 5.75ZM41.6352 18.1295C39.5447 18.1295 37.8441 16.4289 37.8441 14.3395C37.8441 12.249 39.5447 10.5484 41.6352 10.5484C43.7257 10.5484 45.4263 12.249 45.4263 14.3395C45.4263 16.4289 43.7257 18.1295 41.6352 18.1295Z" fill="#1D2345"/>
<path id="Vector_2" d="M14.4061 15.6643C15.2072 14.1399 16.1195 12.8816 17.1129 11.9127C12.5773 13.2352 8.75626 16.2465 6.37842 20.2192H12.6115C13.0857 18.5688 13.6871 17.0348 14.4061 15.6643Z" fill="#1D2345"/>
<path id="Vector_3" d="M31.443 14.3394C31.443 13.8042 31.4847 13.2787 31.5648 12.7649C31.3789 12.6634 31.1909 12.5651 30.9997 12.47C30.8053 12.8439 30.3481 13.0031 29.9593 12.8268C29.1485 12.4583 28.3185 12.1517 27.4725 11.906C28.468 12.877 29.3824 14.1364 30.1847 15.664C30.9089 17.0452 31.5146 18.592 31.991 20.2573C32.3136 20.3599 32.5476 20.6622 32.5476 21.02C32.5476 21.2305 32.4653 21.4217 32.3318 21.5648C32.8766 23.8583 33.1874 26.3429 33.2408 28.9109H37.6974C38.1397 28.9109 38.4986 29.2698 38.4986 29.7121C38.4986 30.1543 38.1397 30.5132 37.6974 30.5132H33.2408C33.1896 32.9862 32.899 35.3811 32.3916 37.603H39.084C39.9236 35.8127 40.4876 33.8589 40.7183 31.793C40.7664 31.3635 41.1467 31.0506 41.574 31.0826C41.5879 30.8935 41.5985 30.7034 41.6071 30.5122C40.8198 30.5058 40.0827 30.2003 39.5273 29.6501C39.1972 29.3222 31.443 21.5498 31.443 14.3394Z" fill="#1D2345"/>
<path id="Vector_4" d="M30.1849 43.7594C29.3816 45.289 28.4672 46.5485 27.4706 47.5195C32.0084 46.2077 35.8486 43.2092 38.2328 39.2056H31.9795C31.5052 40.856 30.9038 42.3888 30.1849 43.7594Z" fill="#1D2345"/>
<path id="Vector_5" d="M30.3099 39.2056H14.2813C14.7033 40.5814 15.2203 41.8611 15.826 43.0148C17.5981 46.3914 19.8958 48.2501 22.2951 48.2501C24.6953 48.2501 26.9931 46.3914 28.7663 43.0148C29.372 41.8611 29.8879 40.5814 30.3099 39.2056Z" fill="#1D2345"/>
<path id="Vector_6" d="M14.4061 43.7594C13.6871 42.3888 13.0857 40.856 12.6115 39.2056H6.37842C8.75626 43.1772 12.5773 46.1896 17.1129 47.512C16.1195 46.5421 15.2072 45.2848 14.4061 43.7594Z" fill="#1D2345"/>
<path id="Vector_7" d="M11.35 30.5134H3.77527C3.88316 33.0398 4.49952 35.4358 5.52287 37.6032H12.1992C11.6918 35.3813 11.4013 32.9863 11.35 30.5134Z" fill="#1D2345"/>
<path id="Vector_8" d="M13.8433 37.6032H30.7477C31.2797 35.4005 31.5842 33.0013 31.6386 30.5134H12.9524C13.0068 33.0013 13.3113 35.4005 13.8433 37.6032Z" fill="#1D2345"/>
<path id="Vector_9" d="M30.7477 21.8212H13.8433C13.3113 24.0238 13.0068 26.422 12.9524 28.9109H31.6386C31.5842 26.422 31.2797 24.0238 30.7477 21.8212Z" fill="#1D2345"/>
<path id="Vector_10" d="M12.1992 21.8212H5.52287C4.49952 23.9886 3.88316 26.3846 3.77527 28.9109H11.35C11.4013 26.438 11.6918 24.0431 12.1992 21.8212Z" fill="#1D2345"/>
<path id="Vector_11" d="M14.2813 20.219H30.3099C29.8879 18.8431 29.372 17.5634 28.7663 16.4097C26.9931 13.0331 24.6953 11.1733 22.2951 11.1733C19.8958 11.1733 17.5981 13.0331 15.826 16.4097C15.2203 17.5634 14.7033 18.8431 14.2813 20.219Z" fill="#1D2345"/>
</g>
</g>
</svg>
