<svg width="56" height="56" viewBox="0 0 56 56" fill="none" xmlns="http://www.w3.org/2000/svg">
<g id="profession 1">
<path id="Vector" d="M24.1985 25.0125C28.8893 25.0125 32.189 17.673 32.189 13.6956C32.189 9.29012 28.604 5.70508 24.1985 5.70508C19.7931 5.70508 16.208 9.29012 16.208 13.6956C16.208 17.673 19.4988 25.0125 24.1985 25.0125Z" fill="#1D2345"/>
<path id="Vector_2" d="M8.89572 46.1926H16.2084V40.4228C16.2084 39.9322 16.6097 39.5309 17.1002 39.5309C17.5907 39.5309 17.992 39.9322 17.992 40.4228V46.1926H25.7685V37.5065C25.7685 35.0095 27.7929 32.9851 30.2899 32.9851H31.3868C31.5384 30.7824 33.2596 29.0077 35.4445 28.7848C33.7233 27.2865 31.5116 26.4393 29.1484 26.4393C28.863 26.4393 28.5955 26.5821 28.426 26.8139L24.1989 32.6819L19.9629 26.8139C19.7934 26.5821 19.5259 26.4393 19.2405 26.4393C14.3624 26.4393 10.2601 30.0957 9.69831 34.8936L8.01285 45.1582C7.96826 45.4167 8.03953 45.6753 8.209 45.8805C8.37842 46.0767 8.62817 46.1926 8.89572 46.1926Z" fill="#1D2345"/>
<path id="Vector_3" d="M33.1613 33.2882V34.7685H30.2897C28.7826 34.7685 27.5519 35.9992 27.5519 37.5063V47.5569C27.5519 49.064 28.7826 50.2947 30.2897 50.2947H47.3409C48.848 50.2947 50.0787 49.064 50.0787 47.5569V37.5063C50.0787 35.9992 48.848 34.7685 47.3409 34.7685H44.4693V33.2882C44.4693 31.772 43.2386 30.5503 41.7226 30.5503H35.908C34.392 30.5503 33.1613 31.772 33.1613 33.2882ZM34.9449 33.2882C34.9449 32.762 35.3819 32.3339 35.908 32.3339H41.7226C42.2487 32.3339 42.6857 32.762 42.6857 33.2882V34.7685H34.9449V33.2882Z" fill="#1D2345"/>
</g>
</svg>
