<svg width="54" height="54" viewBox="0 0 54 54" fill="none" xmlns="http://www.w3.org/2000/svg">
<g id="reputation 1">
<path id="Vector" fill-rule="evenodd" clip-rule="evenodd" d="M23.2017 2.57721L24.5984 6.2558C24.6404 6.36633 24.7382 6.43739 24.8563 6.44314L28.7864 6.63468C29.0537 6.6477 29.1631 6.98444 28.9546 7.15209L25.8876 9.61713C25.7955 9.69116 25.7581 9.80611 25.7891 9.92024L26.8215 13.7172C26.8917 13.9753 26.6053 14.1835 26.3814 14.0369L23.0891 11.8818C22.9902 11.817 22.8694 11.817 22.7705 11.8818L19.4783 14.0369C19.2544 14.1835 18.968 13.9753 19.0382 13.7172L20.0705 9.92013C20.1015 9.80601 20.0642 9.69106 19.9721 9.61703L16.9051 7.15199C16.6966 6.98434 16.806 6.6476 17.0733 6.63458L21.0034 6.44303C21.1215 6.43729 21.2192 6.36623 21.2613 6.25569L22.658 2.57711C22.7522 2.32845 23.1074 2.32845 23.2017 2.57721ZM42.2038 33.7321C47.1404 33.7321 51.1424 37.7341 51.1424 42.6707C51.1424 47.6073 47.1404 51.6093 42.2038 51.6093C37.2671 51.6093 33.2651 47.6073 33.2651 42.6707C33.2651 37.7341 37.2671 33.7321 42.2038 33.7321ZM41.0297 43.4591L39.0324 41.4619C38.5148 40.9443 37.6751 40.9443 37.1574 41.4619C36.6398 41.9795 36.6398 42.8192 37.1574 43.3368L40.095 46.2744C40.6127 46.7921 41.4524 46.7921 41.97 46.2744C43.7406 44.5038 45.4913 42.7132 47.2537 40.9343C47.7676 40.4157 47.766 39.5786 47.248 39.0635C46.7298 38.5482 45.8905 38.5497 45.376 39.0693L41.0297 43.4591ZM8.21913 46.8115L32.4659 46.8114C31.9244 45.5396 31.6246 44.1402 31.6246 42.6707C31.6246 40.4358 32.3183 38.3631 33.5012 36.6551C30.6923 34.1508 26.9892 32.6285 22.93 32.6285C15.1162 32.6285 8.62006 38.2677 7.28767 45.6981C7.18287 46.2817 7.62615 46.8115 8.21913 46.8115ZM22.93 15.5319C27.3679 15.5319 30.9656 19.1296 30.9656 23.5675C30.9656 28.0054 27.3679 31.603 22.93 31.603C18.4921 31.603 14.8944 28.0054 14.8944 23.5675C14.8943 19.1296 18.492 15.5319 22.93 15.5319ZM36.7399 7.78414C36.6454 7.53538 36.2902 7.53538 36.1958 7.78414L34.7991 11.4627C34.7572 11.5734 34.6593 11.6443 34.5412 11.6501L30.6111 11.8416C30.3438 11.8546 30.2344 12.1914 30.4429 12.359L33.5099 14.8241C33.6021 14.8982 33.6394 15.013 33.6083 15.1272L32.5761 18.9242C32.5058 19.1825 32.7922 19.3905 33.0162 19.2439L36.3083 17.0888C36.4072 17.024 36.528 17.024 36.627 17.0888L39.9192 19.2439C40.1431 19.3905 40.4295 19.1824 40.3593 18.9242L39.3269 15.1273C39.2958 15.0131 39.3332 14.8983 39.4254 14.8242L42.4923 12.3591C42.7009 12.1915 42.5915 11.8547 42.3241 11.8417L38.394 11.6502C38.2759 11.6444 38.1782 11.5734 38.1361 11.4628L36.7399 7.78414ZM9.6636 7.78414C9.56916 7.53538 9.21397 7.53538 9.11963 7.78414L7.72295 11.4627C7.68101 11.5734 7.58319 11.6443 7.46506 11.6501L3.53494 11.8416C3.26762 11.8546 3.15822 12.1914 3.36678 12.359L6.43372 14.8241C6.52591 14.8982 6.56323 15.013 6.53216 15.1272L5.4999 18.9242C5.42966 19.1825 5.71605 19.3905 5.94 19.2439L9.23212 17.0888C9.33107 17.024 9.45186 17.024 9.55081 17.0888L12.843 19.2439C13.067 19.3905 13.3534 19.1824 13.2831 18.9242L12.2509 15.1273C12.2198 15.0131 12.2571 14.8983 12.3493 14.8242L15.4162 12.3591C15.6248 12.1915 15.5154 11.8547 15.2481 11.8417L11.318 11.6502C11.1998 11.6444 11.1021 11.5734 11.0601 11.4628L9.6636 7.78414Z" fill="#1D2345"/>
</g>
</svg>
