<svg width="46" height="46" viewBox="0 0 46 46" fill="none" xmlns="http://www.w3.org/2000/svg">
<g id="connection (2) 1" clip-path="url(#clip0_91_200)">
<g id="Group">
<path id="Vector" d="M35.4321 37.9414C33.9596 37.9414 32.6966 38.8516 32.1739 40.1387H29.1039V42.7754H32.1739C32.6966 44.0625 33.9596 44.9727 35.4321 44.9727C37.3706 44.9727 38.9477 43.3955 38.9477 41.457C38.9477 39.5185 37.3706 37.9414 35.4321 37.9414Z" fill="#1D2345"/>
<path id="Vector_2" d="M41.5844 30.4707C41.0065 30.4707 40.4613 30.6117 39.9799 30.8598L36.7155 28.1395C36.4786 27.9421 36.1799 27.834 35.8715 27.834H29.1039V30.4707H35.3942L38.2563 32.8559C38.1354 33.2109 38.0688 33.5908 38.0688 33.9863C38.0688 35.9248 39.6459 37.502 41.5844 37.502C43.5229 37.502 45.1 35.9248 45.1 33.9863C45.1 32.0478 43.5229 30.4707 41.5844 30.4707Z" fill="#1D2345"/>
<path id="Vector_3" d="M41.5844 19.4844C40.112 19.4844 38.8489 20.3946 38.3262 21.6816H29.1039V24.3184H38.3262C38.8489 25.6054 40.112 26.5156 41.5844 26.5156C43.5229 26.5156 45.1 24.9385 45.1 23C45.1 21.0615 43.5229 19.4844 41.5844 19.4844Z" fill="#1D2345"/>
<path id="Vector_4" d="M36.7155 17.8604L39.9799 15.1401C40.4613 15.3883 41.0065 15.5293 41.5844 15.5293C43.5229 15.5293 45.1 13.9522 45.1 12.0137C45.1 10.0752 43.5229 8.49805 41.5844 8.49805C39.6459 8.49805 38.0688 10.0752 38.0688 12.0137C38.0688 12.4092 38.1354 12.7891 38.2563 13.1441L35.3942 15.5293H29.1039V18.166H35.8715C36.1799 18.166 36.4786 18.0579 36.7155 17.8604Z" fill="#1D2345"/>
<path id="Vector_5" d="M35.4321 8.05859C37.3706 8.05859 38.9477 6.48148 38.9477 4.54297C38.9477 2.60445 37.3706 1.02734 35.4321 1.02734C33.9596 1.02734 32.6966 1.93754 32.1739 3.22461H29.1039V5.86133H32.1739C32.6966 7.1484 33.9596 8.05859 35.4321 8.05859Z" fill="#1D2345"/>
<path id="Vector_6" d="M13.2836 23C13.2836 28.0886 17.4235 32.2285 22.5121 32.2285C23.9267 32.2285 25.2678 31.9082 26.4672 31.3369V14.6631C25.2678 14.0918 23.9267 13.7715 22.5121 13.7715C17.4235 13.7715 13.2836 17.9114 13.2836 23Z" fill="#1D2345"/>
<path id="Vector_7" d="M25.1489 0.587891H19.8754C19.1473 0.587891 18.5571 1.17816 18.5571 1.90625V3.62231C16.0832 4.12628 13.7158 5.10705 11.607 6.50152L10.3933 5.28784C9.8784 4.77298 9.0437 4.77298 8.52884 5.28784L4.79999 9.01669C4.28512 9.53146 4.28512 10.3663 4.79999 10.8811L6.01367 12.0949C4.6192 14.2036 3.63843 16.5711 3.13446 19.0449H1.4184C0.69031 19.0449 0.100037 19.6352 0.100037 20.3633V25.6367C0.100037 26.3648 0.69031 26.9551 1.4184 26.9551H3.13446C3.63843 29.4289 4.6192 31.7964 6.01367 33.9052L4.7999 35.119C4.55266 35.3662 4.4138 35.7015 4.4138 36.0511C4.4138 36.4008 4.55266 36.736 4.7999 36.9832L8.52884 40.7122C9.0437 41.227 9.8784 41.227 10.3933 40.7122L11.607 39.4985C13.7158 40.8929 16.0832 41.8736 18.5571 42.3777V44.0938C18.5571 44.8218 19.1473 45.4121 19.8754 45.4121H25.1489C25.877 45.4121 26.4672 44.8218 26.4672 44.0938V34.1865C25.2295 34.6255 23.8984 34.8652 22.5121 34.8652C15.9697 34.8652 10.6469 29.5425 10.6469 23C10.6469 16.4575 15.9697 11.1348 22.5121 11.1348C23.8984 11.1348 25.2295 11.3745 26.4672 11.8135V1.90625C26.4672 1.17816 25.877 0.587891 25.1489 0.587891Z" fill="#1D2345"/>
</g>
</g>
<defs>
<clipPath id="clip0_91_200">
<rect width="45" height="45" fill="white" transform="translate(0.100037 0.5)"/>
</clipPath>
</defs>
</svg>
