<svg width="53" height="52" viewBox="0 0 53 52" fill="none" xmlns="http://www.w3.org/2000/svg">
<g id="megaphone 1">
<path id="Vector" fill-rule="evenodd" clip-rule="evenodd" d="M13.8479 34.3849L18.1263 41.7952C18.7287 42.8388 18.3679 44.1855 17.3243 44.788C16.2808 45.3905 14.934 45.0297 14.3315 43.986L9.49639 35.6114C10.9473 35.2057 12.3934 34.7779 13.8478 34.3848L13.8479 34.3849ZM44.1394 26.6526C43.8972 26.5134 43.8137 26.2044 43.9529 25.9623C44.092 25.7201 44.4011 25.6366 44.6432 25.7758L49.3017 28.4654C49.5438 28.6045 49.6273 28.9136 49.4881 29.1557C49.349 29.3978 49.04 29.4813 48.7978 29.3422L44.1394 26.6526ZM41.6498 14.5985C41.5106 14.8407 41.2016 14.9241 40.9594 14.785C40.7173 14.6459 40.6338 14.3368 40.773 14.0947L43.4625 9.43621C43.6017 9.19408 43.9107 9.1106 44.1529 9.24974C44.395 9.38888 44.4785 9.69794 44.3393 9.94006L41.6498 14.5985ZM45.3901 20.1117C45.1195 20.1841 44.8415 20.0233 44.7693 19.7527C44.697 19.4822 44.8577 19.2041 45.1283 19.1319L50.3241 17.7397C50.5947 17.6673 50.8727 17.8281 50.945 18.0987C51.0173 18.3692 50.8565 18.6473 50.5859 18.7195L45.3901 20.1117ZM30.8639 6.98662C29.8296 7.26379 29.2101 8.33669 29.4872 9.37101L36.7256 36.3851C37.0028 37.4194 38.0757 38.0389 39.11 37.7618C40.1443 37.4846 40.7637 36.4116 40.4867 35.3774L33.2483 8.3632C32.9712 7.32899 31.8982 6.70956 30.8639 6.98662ZM16.1823 32.753L13.5122 22.7883C10.834 23.6182 8.08792 24.2187 5.37905 24.9445C2.72532 25.6555 1.13587 28.4085 1.89495 31.2412C2.65403 34.0739 5.40688 35.6632 8.0606 34.9522C10.7696 34.2263 13.4478 33.3734 16.1823 32.753ZM14.4787 22.4763C21.8914 19.9826 26.7294 15.8127 29.1445 12.0156L35.1065 34.2662C31.1164 32.1854 24.8416 30.9933 17.1752 32.5399L14.4787 22.4762V22.4763ZM37.0263 18.5386L39.627 18.5617C39.8585 18.5637 40.0531 18.7145 40.113 18.9381L41.1444 22.7871C41.2043 23.0106 41.1112 23.2385 40.9117 23.3561L38.6709 24.6763L37.0263 18.5386Z" fill="#004B54"/>
</g>
</svg>
