<svg width="47" height="46" viewBox="0 0 47 46" fill="none" xmlns="http://www.w3.org/2000/svg">
<g id="graphic-design 1" clip-path="url(#clip0_91_146)">
<g id="Group">
<path id="Vector" d="M30.456 23.1922C30.2493 24.8804 29.4901 26.4895 28.2395 27.7401C26.7193 29.2612 24.5945 29.9772 21.9262 29.8694C20.0547 29.7948 19.1904 30.2845 19.0484 30.3734C18.4752 30.8757 17.7475 31.1506 16.9793 31.1506C16.1393 31.1506 15.3496 30.8236 14.7557 30.2297C13.7306 29.2046 13.5652 27.6233 14.2651 26.4185L14.7674 25.6225C14.9381 25.2065 15.169 24.3853 15.1151 23.0583C15.0081 20.389 15.7242 18.2651 17.2444 16.745C18.4896 15.5006 20.0817 14.7298 21.8031 14.524C22.0465 13.3533 22.5739 12.2581 23.3349 11.3381H5.27801C3.29425 11.3381 1.67975 12.9517 1.67975 14.9355V32.7777H39.2167V15.0613L34.6553 20.6514C33.5826 21.9622 32.0929 22.8544 30.456 23.1922Z" fill="#004B54"/>
<path id="Vector_2" d="M1.67984 36.6229C1.67984 38.6058 3.29434 40.2194 5.2781 40.2194H15.5041V43.3046H13.2375C12.4932 43.3046 11.8898 43.908 11.8898 44.6523C11.8898 45.3966 12.4932 46 13.2375 46H27.6587C28.4029 46 29.0063 45.3966 29.0063 44.6523C29.0063 43.908 28.4029 43.3046 27.6587 43.3046H25.3921V40.2194H35.6184C37.6022 40.2194 39.2167 38.6058 39.2167 36.6229V35.4729H1.67975V36.6229H1.67984Z" fill="#004B54"/>
<path id="Vector_3" d="M16.6941 27.6571C16.6939 27.6572 16.6936 27.6575 16.6934 27.6578C16.6932 27.6579 16.6931 27.658 16.6931 27.6581L16.6927 27.6585C16.6925 27.6586 16.6924 27.6588 16.6922 27.6589C16.6922 27.6592 16.6921 27.6592 16.6918 27.6594L16.6917 27.6595C16.6916 27.6597 16.6914 27.6598 16.6913 27.6599C16.6913 27.6599 16.6913 27.6599 16.6912 27.66C16.6911 27.6601 16.6909 27.6603 16.6908 27.6605C16.6908 27.6605 16.6908 27.6605 16.6907 27.6606C16.6905 27.6606 16.6905 27.6608 16.6903 27.661C16.6903 27.661 16.6903 27.661 16.6902 27.6611L16.6897 27.6615C16.5194 27.8374 16.5211 28.118 16.6948 28.2917C16.7825 28.3794 16.8975 28.4232 17.0125 28.4232C17.1264 28.4232 17.2403 28.3802 17.3277 28.294C17.3552 28.268 18.7161 27.0099 22.0685 27.1447C23.9546 27.2207 25.4007 26.7689 26.3672 25.8025C28.3476 23.8221 28.3476 20.5997 26.3672 18.6193C25.4078 17.66 24.1323 17.1316 22.7756 17.1316C21.4188 17.1316 20.1433 17.6599 19.184 18.6193C18.2176 19.5857 17.766 21.032 17.8418 22.918C17.9773 26.2886 16.705 27.6458 16.6948 27.6564C16.6944 27.6567 16.6943 27.6569 16.6941 27.6571Z" fill="#004B54"/>
<path id="Vector_4" d="M30.339 20.4211C31.2176 20.1579 32.0092 19.6368 32.5994 18.9153L34.3214 16.8051L28.1872 10.6709L26.0858 12.3873C25.3625 12.9766 24.8396 13.7673 24.5755 14.6459C25.9645 14.9721 27.2385 15.6791 28.2726 16.7132C29.3309 17.7716 30.02 19.0609 30.339 20.4211Z" fill="#004B54"/>
<path id="Vector_5" d="M44.1779 0.809246C43.1743 -0.194308 41.5877 -0.274269 40.488 0.624168L30.2855 8.95745L36.0344 14.7063L44.3639 4.49832C45.2614 3.39944 45.1814 1.8128 44.1779 0.809246Z" fill="#004B54"/>
</g>
</g>
<defs>
<clipPath id="clip0_91_146">
<rect width="46" height="46" fill="white" transform="translate(0.333313)"/>
</clipPath>
</defs>
</svg>
