<svg width="45" height="44" viewBox="0 0 45 44" fill="none" xmlns="http://www.w3.org/2000/svg">
<g id="searching 1">
<g id="layer1">
<path id="path825" d="M19.952 1.38257C10.0807 1.38257 2.03809 9.41442 2.03809 19.2857C2.03809 29.1571 10.0807 37.1862 19.952 37.1862C24.3916 37.1862 28.4505 35.5545 31.5826 32.8691L33.1453 34.4318L32.1716 35.4055C31.9135 35.6638 31.7684 36.0141 31.7684 36.3792C31.7684 36.7444 31.9135 37.0947 32.1716 37.3529L36.3005 41.4844C37.2037 42.3883 38.3658 42.8271 39.4448 42.7782C40.5238 42.7314 41.4863 42.2464 42.1964 41.5382C42.9065 40.8301 43.391 39.8709 43.4418 38.792C43.4927 37.713 43.054 36.5488 42.1507 35.6449L38.0165 31.5081C37.8864 31.3779 37.7316 31.2752 37.5611 31.2059C37.3906 31.1366 37.208 31.1021 37.024 31.1046C36.6653 31.1096 36.3227 31.2544 36.0691 31.5081L35.0927 32.4844L33.53 30.9217C36.2189 27.7894 37.8551 23.7281 37.8551 19.2857C37.8551 9.41442 29.8233 1.38257 19.952 1.38257ZM22.6956 12.3918H28.2069C28.3887 12.3911 28.5688 12.4264 28.7368 12.4957C28.9049 12.5649 29.0575 12.6667 29.1861 12.7952C29.3146 12.9237 29.4164 13.0764 29.4856 13.2445C29.5549 13.4125 29.5902 13.5926 29.5895 13.7744V19.2857C29.5935 19.4691 29.5609 19.6515 29.4935 19.8222C29.4262 19.9928 29.3254 20.1483 29.1971 20.2794C29.0688 20.4106 28.9156 20.5148 28.7465 20.586C28.5774 20.6571 28.3958 20.6938 28.2123 20.6938C28.0288 20.6938 27.8472 20.6571 27.6781 20.586C27.509 20.5148 27.3558 20.4106 27.2275 20.2794C27.0992 20.1483 26.9984 19.9928 26.9311 19.8222C26.8637 19.6515 26.8311 19.4691 26.8351 19.2857V17.0962L20.9176 23.0057C20.3805 23.5395 19.5128 23.5395 18.9756 23.0057L17.1977 21.225L12.6627 25.76C11.3692 27.1468 9.32992 25.1188 10.7099 23.818L16.2213 18.3093C16.7584 17.7755 17.6261 17.7755 18.1633 18.3093L19.9412 20.098L24.8931 15.1462H22.6956C22.5121 15.1503 22.3297 15.1177 22.159 15.0503C21.9883 14.983 21.8328 14.8822 21.7016 14.7539C21.5704 14.6256 21.4661 14.4724 21.395 14.3033C21.3238 14.1341 21.2871 13.9525 21.2871 13.769C21.2871 13.5855 21.3238 13.4038 21.395 13.2347C21.4661 13.0656 21.5704 12.9124 21.7016 12.7841C21.8328 12.6558 21.9883 12.555 22.159 12.4876C22.3297 12.4203 22.5121 12.3877 22.6956 12.3918Z" fill="#004B54"/>
</g>
</g>
</svg>
