<svg width="42" height="42" viewBox="0 0 42 42" fill="none" xmlns="http://www.w3.org/2000/svg">
<g id="user-experience 1">
<path id="Vector" fill-rule="evenodd" clip-rule="evenodd" d="M37.3428 3.47192H4.65724C3.4225 3.4734 2.23876 3.96456 1.36568 4.83766C0.492591 5.71076 0.00145451 6.89451 0 8.12925L0 14.2261H42V8.12925C41.9983 6.8946 41.5071 5.711 40.634 4.83798C39.761 3.96496 38.5774 3.47376 37.3428 3.47209V3.47192ZM0 16.4277V33.8707C0.00147622 35.1054 0.492623 36.2891 1.36571 37.1622C2.23879 38.0353 3.42252 38.5264 4.65724 38.5279H37.3428C38.5774 38.5262 39.761 38.035 40.6341 37.162C41.5071 36.2889 41.9983 35.1053 42 33.8707V16.4277H0ZM30.7794 23.5943L27.9973 26.3769L30.7792 29.1596C30.8814 29.2618 30.9625 29.3831 31.0179 29.5166C31.0732 29.6501 31.1017 29.7932 31.1018 29.9378C31.1018 30.0823 31.0734 30.2255 31.0181 30.359C30.9628 30.4926 30.8818 30.6139 30.7796 30.7161C30.6774 30.8184 30.5561 30.8995 30.4226 30.9548C30.2891 31.0102 30.146 31.0387 30.0014 31.0387C29.8569 31.0388 29.7137 31.0103 29.5802 30.955C29.4466 30.8998 29.3253 30.8187 29.2231 30.7166L26.4404 27.9339L23.657 30.7165C23.4506 30.9229 23.1706 31.039 22.8786 31.039C22.5866 31.039 22.3066 30.9231 22.1001 30.7166C21.8936 30.5102 21.7776 30.2302 21.7776 29.9382C21.7776 29.6463 21.8935 29.3662 22.1 29.1598L24.8835 26.3769L22.1 23.5941C21.9977 23.4919 21.9167 23.3705 21.8614 23.2369C21.806 23.1034 21.7776 22.9602 21.7776 22.8156C21.7776 22.6711 21.8061 22.5279 21.8614 22.3944C21.9168 22.2608 21.9979 22.1395 22.1001 22.0372C22.2024 21.935 22.3237 21.8539 22.4573 21.7986C22.5909 21.7433 22.734 21.7149 22.8786 21.7149C23.0232 21.7149 23.1663 21.7434 23.2999 21.7987C23.4334 21.8541 23.5548 21.9352 23.657 22.0374L26.4404 24.82L29.2231 22.0373C29.3253 21.9351 29.4466 21.8541 29.5802 21.7988C29.7137 21.7435 29.8569 21.7151 30.0014 21.7152C30.146 21.7152 30.2891 21.7437 30.4226 21.799C30.5561 21.8544 30.6774 21.9355 30.7796 22.0377C30.8818 22.14 30.9628 22.2613 31.0181 22.3949C31.0734 22.5284 31.1018 22.6715 31.1018 22.8161C31.1017 22.9606 31.0732 23.1037 31.0179 23.2373C30.9625 23.3708 30.8814 23.4921 30.7792 23.5943H30.7794ZM19.2723 22.8119V26.8543C19.2748 27.4057 19.1683 27.9523 18.9589 28.4625C18.7496 28.9726 18.4415 29.4365 18.0524 29.8273C17.6633 30.2181 17.2009 30.5282 16.6916 30.7398C16.1824 30.9514 15.6363 31.0603 15.0848 31.0603C14.5334 31.0603 13.9873 30.9514 13.4781 30.7398C12.9688 30.5282 12.5064 30.2181 12.1173 29.8273C11.7282 29.4365 11.4201 28.9726 11.2108 28.4625C11.0014 27.9523 10.8949 27.4057 10.8974 26.8543V22.8119C10.8974 22.52 11.0133 22.24 11.2197 22.0336C11.4261 21.8272 11.7061 21.7112 11.998 21.7112C12.2899 21.7112 12.5698 21.8272 12.7762 22.0336C12.9826 22.24 13.0986 22.52 13.0986 22.8119V26.8543C13.0986 27.381 13.3078 27.8861 13.6803 28.2586C14.0527 28.631 14.5578 28.8403 15.0846 28.8403C15.6113 28.8403 16.1164 28.631 16.4889 28.2586C16.8613 27.8861 17.0705 27.381 17.0705 26.8543V22.8119C17.073 22.5215 17.1901 22.2439 17.3963 22.0395C17.6025 21.8351 17.8811 21.7204 18.1714 21.7204C18.4618 21.7204 18.7404 21.8351 18.9466 22.0395C19.1527 22.2439 19.2698 22.5215 19.2723 22.8119ZM23.4445 9.94952C23.4445 9.80498 23.473 9.66185 23.5283 9.52831C23.5836 9.39477 23.6646 9.27343 23.7668 9.17122C23.8691 9.06902 23.9904 8.98795 24.1239 8.93264C24.2575 8.87734 24.4006 8.84889 24.5451 8.84891H35.3034C35.5937 8.85141 35.8713 8.96851 36.0757 9.17469C36.2801 9.38088 36.3948 9.65947 36.3948 9.94981C36.3948 10.2402 36.2801 10.5187 36.0757 10.7249C35.8713 10.9311 35.5937 11.0482 35.3034 11.0507H24.5451C24.4006 11.0507 24.2574 11.0222 24.1238 10.9669C23.9903 10.9115 23.8689 10.8304 23.7667 10.7281C23.6645 10.6259 23.5834 10.5045 23.5281 10.3709C23.4729 10.2373 23.4445 10.0941 23.4445 9.94952ZM5.59658 9.94952C5.5964 9.80498 5.62472 9.66183 5.67993 9.52825C5.73514 9.39467 5.81615 9.27329 5.91833 9.17106C6.02051 9.06883 6.14184 8.98776 6.27539 8.93248C6.40894 8.8772 6.55208 8.8488 6.69662 8.84891H6.69785C6.9156 8.84897 7.12843 8.91361 7.30945 9.03463C7.49046 9.15566 7.63152 9.32765 7.71479 9.52884C7.79805 9.73004 7.81979 9.95141 7.77725 10.165C7.7347 10.3785 7.62979 10.5746 7.47577 10.7286C7.32176 10.8825 7.12556 10.9873 6.91198 11.0297C6.69841 11.0721 6.47705 11.0502 6.27591 10.9669C6.07476 10.8835 5.90286 10.7423 5.78194 10.5612C5.66102 10.3801 5.59652 10.1673 5.59658 9.94952ZM10.362 9.94952C10.3618 9.80499 10.3902 9.66184 10.4454 9.52827C10.5006 9.3947 10.5816 9.27332 10.6837 9.17109C10.7859 9.06886 10.9072 8.98779 11.0408 8.9325C11.1743 8.87722 11.3174 8.84881 11.462 8.84891H11.4638C11.6815 8.84907 11.8943 8.91379 12.0752 9.03487C12.2562 9.15596 12.3972 9.32798 12.4804 9.52918C12.5636 9.73039 12.5852 9.95174 12.5426 10.1653C12.5 10.3788 12.3951 10.5749 12.241 10.7287C12.087 10.8826 11.8908 10.9874 11.6772 11.0297C11.4637 11.0721 11.2424 11.0502 11.0412 10.9668C10.8401 10.8834 10.6682 10.7422 10.5473 10.5612C10.4265 10.3801 10.362 10.1672 10.362 9.94952ZM15.1267 9.94952C15.1267 9.6577 15.2425 9.3778 15.4488 9.1714C15.6551 8.965 15.9349 8.849 16.2268 8.84891H16.2291C16.4468 8.84923 16.6595 8.91409 16.8404 9.03527C17.0212 9.15645 17.1621 9.32853 17.2451 9.52975C17.3282 9.73097 17.3498 9.95229 17.3071 10.1658C17.2644 10.3792 17.1594 10.5752 17.0053 10.729C16.8512 10.8828 16.655 10.9875 16.4415 11.0298C16.2279 11.0721 16.0067 11.0502 15.8056 10.9667C15.6045 10.8833 15.4327 10.7421 15.3118 10.5611C15.191 10.38 15.1265 10.1672 15.1266 9.94952H15.1267Z" fill="#004B54"/>
</g>
</svg>
