<svg width="46" height="46" viewBox="0 0 46 46" fill="none" xmlns="http://www.w3.org/2000/svg">
<g id="video-editing 1">
<path id="Vector" d="M24.4901 38.3265C24.4714 37.285 24.7364 36.2581 25.2568 35.3557L31.6249 24.3291V22.9999H32.3916L34.0514 20.1249H31.6249V14.3749H37.3749V15.1263C37.7865 14.8323 38.2541 14.6261 38.7486 14.5205C39.2432 14.4148 39.7542 14.4119 40.2499 14.512V8.62492C40.2499 7.35409 39.7451 6.13531 38.8465 5.2367C37.9479 4.33809 36.7291 3.83325 35.4583 3.83325H7.66661C6.39578 3.83325 5.177 4.33809 4.27839 5.2367C3.37977 6.13531 2.87494 7.35409 2.87494 8.62492V34.4999C2.87494 35.1292 2.99888 35.7523 3.23968 36.3336C3.48049 36.915 3.83344 37.4432 4.27839 37.8881C4.72333 38.3331 5.25156 38.686 5.83291 38.9268C6.41427 39.1676 7.03735 39.2916 7.66661 39.2916H24.5064L24.4901 38.3265ZM31.6249 6.70825H35.4583C35.9666 6.70825 36.4541 6.91019 36.8136 7.26963C37.173 7.62908 37.3749 8.11659 37.3749 8.62492V11.4999H31.6249V6.70825ZM11.4999 36.4166H7.66661C7.15827 36.4166 6.67076 36.2147 6.31132 35.8552C5.95187 35.4958 5.74994 35.0083 5.74994 34.4999V31.6249H11.4999V36.4166ZM11.4999 28.7499H5.74994V22.9999H11.4999V28.7499ZM11.4999 20.1249H5.74994V14.3749H11.4999V20.1249ZM11.4999 11.4999H5.74994V8.62492C5.74994 8.11659 5.95187 7.62908 6.31132 7.26963C6.67076 6.91019 7.15827 6.70825 7.66661 6.70825H11.4999V11.4999ZM16.2859 26.4748V17.6083C16.2859 17.2719 16.3744 16.9414 16.5427 16.65C16.7109 16.3587 16.9528 16.1167 17.2442 15.9485C17.5356 15.7803 17.8661 15.6917 18.2025 15.6917C18.539 15.6917 18.8695 15.7803 19.1609 15.9485L26.839 20.3818C27.1304 20.55 27.3723 20.7919 27.5405 21.0833C27.7087 21.3747 27.7973 21.7052 27.7973 22.0416C27.7973 22.378 27.7087 22.7085 27.5405 22.9999C27.3723 23.2912 27.1304 23.5332 26.839 23.7014L19.1609 28.1347C18.8695 28.3029 18.539 28.3915 18.2025 28.3915C17.8661 28.3915 17.5356 28.3029 17.2442 28.1347C16.9528 27.9665 16.7109 27.7245 16.5427 27.4332C16.3744 27.1418 16.2859 26.8113 16.2859 26.4748Z" fill="#004B54"/>
<path id="Vector_2" d="M37.3749 33.5369V34.5C37.373 34.9603 37.2055 35.4046 36.9031 35.7516C36.6006 36.0986 36.1833 36.3252 35.7275 36.3899L34.0524 39.2917H35.4582C36.0875 39.2917 36.7106 39.1677 37.2919 38.9269C37.8733 38.6861 38.4015 38.3332 38.8465 37.8882C39.2914 37.4433 39.6444 36.9151 39.8852 36.3337C40.126 35.7524 40.2499 35.1293 40.2499 34.5V28.5583L37.3749 33.5369Z" fill="#004B54"/>
<path id="Vector_3" d="M36.1293 20.3638L27.3472 35.5735L32.3305 38.4485L41.1127 23.2388L36.1293 20.3638ZM36.4044 27.5513C36.2764 27.7696 36.0672 27.9284 35.8226 27.9931C35.5779 28.0578 35.3176 28.0231 35.0985 27.8965C34.8793 27.77 34.7191 27.5619 34.6528 27.3177C34.5865 27.0735 34.6195 26.8129 34.7445 26.5929L36.182 24.1013C36.2445 23.9914 36.3281 23.895 36.428 23.8175C36.5279 23.7401 36.6421 23.6832 36.764 23.6501C36.886 23.617 37.0133 23.6083 37.1387 23.6246C37.264 23.6409 37.3849 23.6818 37.4943 23.745C37.6038 23.8082 37.6996 23.8924 37.7764 23.9928C37.8532 24.0932 37.9093 24.2078 37.9416 24.33C37.9739 24.4522 37.9818 24.5795 37.9646 24.7048C37.9475 24.83 37.9058 24.9506 37.8419 25.0596L36.4044 27.5513Z" fill="#004B54"/>
<path id="Vector_4" d="M42.071 21.5779L42.8731 20.1892C42.9987 19.971 43.0801 19.7301 43.1126 19.4804C43.1451 19.2306 43.1281 18.9769 43.0625 18.7338C42.9969 18.4906 42.8841 18.2628 42.7304 18.0633C42.5767 17.8638 42.3852 17.6965 42.1668 17.5711L40.507 16.6127C40.0667 16.3586 39.5436 16.2897 39.0526 16.4213C38.5616 16.5528 38.143 16.874 37.8888 17.3142L37.0867 18.7038L42.071 21.5779Z" fill="#004B54"/>
<path id="Vector_5" d="M26.5206 37.3098C26.4396 37.6318 26.4009 37.963 26.4056 38.295L26.4554 41.2227C26.4581 41.3882 26.5037 41.5501 26.5876 41.6928C26.6715 41.8354 26.7909 41.9539 26.9342 42.0367C27.0775 42.1195 27.2398 42.1638 27.4053 42.1652C27.5708 42.1667 27.7338 42.1252 27.8785 42.0449L30.4392 40.6237C30.7292 40.4616 30.9969 40.2625 31.2356 40.0315L26.5206 37.3098Z" fill="#004B54"/>
</g>
</svg>
