<svg width="41" height="40" viewBox="0 0 41 40" fill="none" xmlns="http://www.w3.org/2000/svg">
<g id="web-development 1" clip-path="url(#clip0_91_111)">
<path id="Vector" d="M40.6667 9.45312V3.59375C40.6667 1.65523 39.0895 0.078125 37.151 0.078125H4.18228C2.24377 0.078125 0.666656 1.65523 0.666656 3.59375V9.45312H40.6667ZM27.6979 4.76562H34.7292C35.3763 4.76562 35.901 5.29031 35.901 5.9375C35.901 6.58469 35.3763 7.10938 34.7292 7.10938H27.6979C27.0507 7.10938 26.526 6.58469 26.526 5.9375C26.526 5.29031 27.0507 4.76562 27.6979 4.76562ZM15.9792 4.76562C16.6263 4.76562 17.151 5.29031 17.151 5.9375C17.151 6.58469 16.6263 7.10938 15.9792 7.10938C15.332 7.10938 14.8073 6.58469 14.8073 5.9375C14.8073 5.29031 15.332 4.76562 15.9792 4.76562ZM11.2917 4.76562C11.9388 4.76562 12.4635 5.29031 12.4635 5.9375C12.4635 6.58469 11.9388 7.10938 11.2917 7.10938C10.6445 7.10938 10.1198 6.58469 10.1198 5.9375C10.1198 5.29031 10.6445 4.76562 11.2917 4.76562ZM6.60416 4.76562C7.25134 4.76562 7.77603 5.29031 7.77603 5.9375C7.77603 6.58469 7.25134 7.10938 6.60416 7.10938C5.95697 7.10938 5.43228 6.58469 5.43228 5.9375C5.43228 5.29031 5.95697 4.76562 6.60416 4.76562Z" fill="#004B54"/>
<path id="Vector_2" d="M0.666656 11.7969V36.4062C0.666656 38.3448 2.24377 39.9219 4.18228 39.9219H37.151C39.0895 39.9219 40.6667 38.3448 40.6667 36.4062V11.7969H0.666656ZM14.3674 28.4599C14.8729 28.8642 14.9548 29.6016 14.5505 30.107C14.1463 30.6123 13.4087 30.6944 12.9034 30.29L7.044 25.6025C6.45814 25.134 6.45775 24.2413 7.044 23.7723L12.9034 19.0848C13.4085 18.6805 14.1461 18.7624 14.5505 19.2678C14.9548 19.7732 14.8729 20.5107 14.3674 20.9149L9.65197 24.6875L14.3674 28.4599ZM25.2594 16.946L18.2281 33.3523C17.9732 33.947 17.2845 34.2228 16.6894 33.9677C16.0945 33.7128 15.8189 33.0238 16.0739 32.429L23.1052 16.0227C23.3602 15.4279 24.0491 15.1523 24.6439 15.4073C25.2388 15.6622 25.5144 16.3511 25.2594 16.946ZM34.2893 25.6026L28.4299 30.2901C27.9254 30.6938 27.1877 30.6132 26.7828 30.1071C26.3785 29.6017 26.4604 28.8642 26.9659 28.46L31.6813 24.6875L26.9659 20.9151C26.4604 20.5108 26.3785 19.7734 26.7828 19.268C27.187 18.7626 27.9245 18.6806 28.4299 19.085L34.2893 23.7725C34.8752 24.241 34.8756 25.1337 34.2893 25.6026Z" fill="#004B54"/>
</g>
<defs>
<clipPath id="clip0_91_111">
<rect width="40" height="40" fill="white" transform="translate(0.666656)"/>
</clipPath>
</defs>
</svg>
