<svg width="658" height="526" viewBox="0 0 658 526" fill="none" xmlns="http://www.w3.org/2000/svg">
<rect width="747.008" height="508.611" rx="40" transform="matrix(0.851092 -0.525016 0.631053 0.77574 210.216 351.929)" fill="url(#paint0_linear_1_4)"/>
<path d="M331.446 0.686379C317.528 -16.4697 321.5 -39.7609 340.316 -51.3359L635.693 -233.041C654.509 -244.616 681.045 -240.092 694.963 -222.936L819.093 -69.921C833.011 -52.7649 829.04 -29.4738 810.224 -17.8987L480.777 184.765L331.446 0.686379Z" fill="url(#paint1_linear_1_4)"/>
<path d="M301.968 426.131H192.927V524.134H301.968V426.131Z" fill="#61A6AF"/>
<path d="M293.793 457.634V434.306H201.103V457.634H293.793Z" fill="#B0E7EE"/>
<path d="M293.793 487.018V463.69H201.103V487.018H293.793Z" fill="#B0E7EE"/>
<path d="M293.793 517.594V494.267H201.103V517.594H293.793Z" fill="#B0E7EE"/>
<path d="M247.448 451.272C250.006 451.272 252.08 449.198 252.08 446.64C252.08 444.081 250.006 442.007 247.448 442.007C244.889 442.007 242.815 444.081 242.815 446.64C242.815 449.198 244.889 451.272 247.448 451.272Z" fill="#EBEDFF"/>
<path d="M252.08 475.889C252.08 478.447 250.006 480.521 247.448 480.521C244.889 480.521 242.815 478.447 242.815 475.889C242.815 473.331 244.889 471.257 247.448 471.257C250.006 471.257 252.08 473.331 252.08 475.889Z" fill="#EBEDFF"/>
<path d="M252.08 508.226C252.08 510.784 250.006 512.858 247.448 512.858C244.889 512.858 242.815 510.784 242.815 508.226C242.815 505.668 244.889 503.594 247.448 503.594C250.006 503.594 252.08 505.668 252.08 508.226Z" fill="#EBEDFF"/>
<path d="M303.098 140.839H122.876C117.052 140.839 112.333 145.559 112.333 151.383V267.52C112.333 273.344 117.052 278.064 122.876 278.064H303.098C308.922 278.064 313.642 273.344 313.642 267.52V151.383C313.642 145.559 308.921 140.839 303.098 140.839Z" fill="white"/>
<path d="M122.876 270.19C121.403 270.19 120.206 268.993 120.206 267.52V151.383C120.206 149.91 121.403 148.712 122.876 148.712H303.097C304.57 148.712 305.769 149.91 305.769 151.383V267.52C305.769 268.993 304.57 270.19 303.097 270.19H122.876Z" fill="#E6F7FA"/>
<path d="M303.097 148.711H250.695C253.524 162.336 264.204 207.032 286.474 229.304H305.769V151.383C305.77 149.909 304.571 148.711 303.097 148.711Z" fill="#B0E7EE"/>
<path d="M286.475 229.304V241.145H305.457L305.77 229.304H286.475Z" fill="#61A6AF"/>
<path d="M305.77 267.52V241.325L305.458 241.145H286.477C286.477 241.145 277.421 264.566 276.899 270.052L277.212 270.19H303.098C304.571 270.19 305.77 268.993 305.77 267.52Z" fill="#B0E7EE"/>
<path d="M123.283 148.711H175.685C172.856 162.336 162.175 207.032 139.904 229.304H120.611V151.383C120.609 149.909 121.81 148.711 123.283 148.711Z" fill="#B0E7EE"/>
<path d="M139.905 229.304V241.145H120.923L120.61 229.304H139.905Z" fill="#61A6AF"/>
<path d="M120.61 267.52V241.325L120.922 241.145H139.903C139.903 241.145 148.959 264.566 149.481 270.052L149.168 270.19H123.282C121.81 270.19 120.61 268.993 120.61 267.52Z" fill="#B0E7EE"/>
<path d="M472.866 147.076H383.717C380.837 147.076 378.502 149.411 378.502 152.291V209.739C378.502 212.62 380.837 214.954 383.717 214.954H472.866C475.747 214.954 478.081 212.618 478.081 209.739V152.291C478.081 149.41 475.745 147.076 472.866 147.076Z" fill="#61A6AF"/>
<path d="M478.081 156.946V152.291C478.081 149.41 475.745 147.076 472.866 147.076H383.717C380.837 147.076 378.502 149.411 378.502 152.291V156.946H478.081Z" fill="#8ADCE6"/>
<path d="M399.296 166.452H385.601C384.917 166.452 384.362 167.007 384.362 167.691V181.338C384.362 182.022 384.917 182.577 385.601 182.577H399.296C399.98 182.577 400.535 182.022 400.535 181.338V167.691C400.535 167.007 399.98 166.452 399.296 166.452Z" fill="#EBEDFF"/>
<path d="M423.274 166.452H409.578C408.894 166.452 408.339 167.007 408.339 167.691V181.338C408.339 182.022 408.894 182.577 409.578 182.577H423.274C423.958 182.577 424.513 182.022 424.513 181.338V167.691C424.513 167.007 423.958 166.452 423.274 166.452Z" fill="white"/>
<path d="M447.12 166.452H433.424C432.74 166.452 432.185 167.007 432.185 167.691V181.338C432.185 182.022 432.74 182.577 433.424 182.577H447.12C447.804 182.577 448.359 182.022 448.359 181.338V167.691C448.359 167.007 447.804 166.452 447.12 166.452Z" fill="#8ADCE6"/>
<path d="M470.171 166.452H456.475C455.791 166.452 455.236 167.007 455.236 167.691V181.338C455.236 182.022 455.791 182.577 456.475 182.577H470.171C470.855 182.577 471.41 182.022 471.41 181.338V167.691C471.41 167.007 470.855 166.452 470.171 166.452Z" fill="#EBEDFF"/>
<path d="M399.296 188.948H385.601C384.917 188.948 384.362 189.503 384.362 190.187V203.833C384.362 204.517 384.917 205.072 385.601 205.072H399.296C399.98 205.072 400.535 204.517 400.535 203.833V190.187C400.535 189.503 399.98 188.948 399.296 188.948Z" fill="#8ADCE6"/>
<path d="M423.274 188.948H409.578C408.894 188.948 408.339 189.503 408.339 190.187V203.833C408.339 204.517 408.894 205.072 409.578 205.072H423.274C423.958 205.072 424.513 204.517 424.513 203.833V190.187C424.513 189.503 423.958 188.948 423.274 188.948Z" fill="#EBEDFF"/>
<path d="M447.12 188.948H433.424C432.74 188.948 432.185 189.503 432.185 190.187V203.833C432.185 204.517 432.74 205.072 433.424 205.072H447.12C447.804 205.072 448.359 204.517 448.359 203.833V190.187C448.359 189.503 447.804 188.948 447.12 188.948Z" fill="white"/>
<path d="M470.171 188.948H456.475C455.791 188.948 455.236 189.503 455.236 190.187V203.833C455.236 204.517 455.791 205.072 456.475 205.072H470.171C470.855 205.072 471.41 204.517 471.41 203.833V190.187C471.41 189.503 470.855 188.948 470.171 188.948Z" fill="#EBEDFF"/>
<path d="M624.224 353.9H307.437V365.465H624.224V353.9Z" fill="#61A6AF"/>
<path d="M598.618 365.465H326.712V524.705H598.618V365.465Z" fill="#61A6AF"/>
<path d="M575.379 168.7C589.315 154.764 589.315 132.169 575.379 118.233C561.443 104.297 538.848 104.297 524.912 118.233C510.977 132.169 510.977 154.764 524.912 168.7C538.848 182.636 561.443 182.636 575.379 168.7Z" fill="#61A6AF"/>
<path d="M550.152 169.747C564.667 169.747 576.434 157.98 576.434 143.464C576.434 128.949 564.667 117.182 550.152 117.182C535.636 117.182 523.869 128.949 523.869 143.464C523.869 157.98 535.636 169.747 550.152 169.747Z" fill="#EBEDFF"/>
<path d="M541.887 154.955C541.558 154.955 541.232 154.818 541 154.549C540.577 154.058 540.631 153.319 541.121 152.895L549.271 145.856V127.335C549.271 126.687 549.795 126.163 550.443 126.163C551.091 126.163 551.616 126.687 551.616 127.335V146.393C551.616 146.733 551.468 147.057 551.21 147.28L542.654 154.67C542.431 154.861 542.159 154.955 541.887 154.955Z" fill="#00A2B7"/>
<path d="M90.3206 446.267L92.0826 446.638C94.1535 441.081 96.0292 432.512 92.985 423.51C87.7946 408.162 85.3024 388.83 75.3721 374.319C61.8042 354.493 58.5479 311.376 58.5479 311.376C58.5479 311.376 42.0311 345.58 53.2883 377.819C64.5454 410.059 77.8612 418.505 84.5968 424.8C91.7889 431.523 91.6444 440.243 90.3206 446.267Z" fill="#B0E7EE"/>
<path d="M90.6958 446.345L92.0825 446.638C94.1535 441.081 96.0292 432.512 92.985 423.51C87.7946 408.162 85.3024 388.83 75.3721 374.319C61.8041 354.493 58.5478 311.376 58.5478 311.376C58.5478 311.376 49.417 357.471 59.993 373.706C70.5706 389.941 71.0519 385.987 78.6514 401.412C86.251 416.837 88.6525 421.213 90.9648 430.179C92.4423 435.919 91.5398 442.397 90.6958 446.345Z" fill="#B0E7EE"/>
<path d="M99.0781 458.862C99.0781 458.862 102.454 453.826 100.474 435.026C98.4939 416.226 93.0867 398.246 96.117 377.742C99.1473 357.24 121.508 305.239 121.625 301.809C121.742 298.379 127.545 361.644 116.004 386.852C104.462 412.059 103 420.751 103.329 433.874C103.658 446.998 102.908 457.588 101.638 460.667L99.0781 458.862Z" fill="#B0E7EE"/>
<path d="M101.621 420.915C102.817 429.296 103.334 450.359 101.183 455.448C100.981 455.923 100.705 455.66 100.369 454.797C101.049 451.3 101.546 445.184 100.476 435.026C98.4953 416.226 93.0881 398.246 96.1184 377.742C99.1487 357.241 121.509 305.24 121.626 301.81C121.626 301.81 117.803 344.827 106.412 374.618C98.2555 395.947 100.425 412.536 101.621 420.915Z" fill="#B0E7EE"/>
<path d="M111.187 454.879C111.187 454.879 101.392 427.897 117.755 404.631C134.118 381.365 160.313 351.509 160.796 339.645C160.796 339.645 167.748 396.013 146.401 411.881C125.052 427.749 110.051 430.235 113.847 454.788L111.187 454.879Z" fill="#B0E7EE"/>
<path d="M134.101 400.506C110.303 419.736 108.427 441.984 112.166 452.322C112.457 453.126 113.004 453.618 113.725 453.883C110.444 430.185 125.322 427.546 146.4 411.88C167.748 396.012 160.796 339.643 160.796 339.643C160.796 339.643 157.901 381.275 134.101 400.506Z" fill="#B0E7EE"/>
<path d="M81.9206 461.443L76.5364 441.973C56.4913 370.871 0.382294 368.505 0.382294 368.505C6.2461 369.673 36.6936 392.887 41.4089 413.543C43.6244 423.244 53.5348 430.132 62.2874 434.693C68.6002 437.983 73.2663 443.789 75.2188 450.635C76.8901 456.493 77.771 461.688 77.771 461.688L81.9206 461.443Z" fill="#B0E7EE"/>
<path d="M51.4131 414.525C57.9718 427.108 66.4201 432.223 73.9966 433.949C52.1541 370.725 0.382294 368.505 0.382294 368.505C1.54153 368.735 3.68318 369.855 6.37371 371.618C17.165 377.643 39.8269 392.301 51.4131 414.525Z" fill="#B0E7EE"/>
<path d="M124.239 444.374H65.5962C58.5947 444.374 53.2936 450.699 54.5159 457.592L65.0458 516.973C65.7868 521.153 69.4198 524.198 73.6647 524.198H116.172C120.417 524.198 124.05 521.152 124.791 516.973L135.321 457.592C136.543 450.699 131.24 444.374 124.239 444.374Z" fill="#61A6AF"/>
<path d="M135.072 452.568C133.751 447.906 129.471 444.375 124.24 444.375H65.5961C60.3657 444.375 56.0854 447.906 54.7648 452.568H135.072Z" fill="#B0E7EE"/>
<path d="M124.24 444.374H109.279C116.281 444.374 121.582 450.699 120.36 457.592L109.83 516.973C109.089 521.153 105.456 524.198 101.211 524.198H116.172C120.416 524.198 124.049 521.152 124.79 516.973L135.32 457.592C136.543 450.699 131.24 444.374 124.24 444.374Z" fill="#B0E7EE"/>
<path d="M519.477 247.796C524.526 248.66 548.547 252.77 553.242 256.037C557.276 258.844 576.822 316.014 572.7 318.99C568.579 321.967 544.085 324.713 544.085 324.713L546.832 345.351L518.8 351.73C512.072 353.261 505.103 353.412 498.314 352.173L474.722 347.87L479.529 288.314L448.133 306.346C445.847 307.539 443.029 306.686 441.788 304.426L408.341 246.592L417.796 242.127L446.565 276.64L474.265 254.664C474.265 254.664 480.502 250.314 503.453 248.368L519.477 247.796Z" fill="#54CBDB"/>
<path d="M417.094 242.738C417.094 242.738 412.234 232.774 410.495 232.28C408.756 231.785 410.343 236.299 410.343 236.299C410.343 236.299 404.287 231.657 399.504 232.317C394.721 232.975 408.333 241.591 409.68 246.228C409.68 246.228 417.389 242.77 417.094 242.738Z" fill="#FFA683"/>
<path d="M443.459 317.28H493.317C496.004 317.28 498.183 315.102 498.183 312.414V282.782C498.183 280.094 496.004 277.916 493.317 277.916H443.459C440.771 277.916 438.593 280.094 438.593 282.782V312.414C438.593 315.102 440.771 317.28 443.459 317.28Z" fill="white"/>
<path d="M470.296 317.28H512.483C514.757 317.28 516.601 315.437 516.601 313.163V313.613C516.601 311.339 514.757 309.496 512.483 309.496H470.296C468.022 309.496 466.179 311.339 466.179 313.613V313.163C466.179 315.437 468.022 317.28 470.296 317.28Z" fill="white"/>
<path d="M502.999 309.495V312.413C502.999 315.09 500.838 317.261 498.166 317.281H493.35C496.022 317.262 498.181 315.09 498.181 312.413V309.495H502.999Z" fill="#E6E1EF"/>
<path d="M459.241 300.009C459.241 296.253 462.285 293.208 466.041 293.208C469.797 293.208 472.841 296.253 472.841 300.009C472.841 303.765 469.797 306.809 466.041 306.809C462.285 306.809 459.241 303.763 459.241 300.009Z" fill="#E6E1EF"/>
<path opacity="0.42" d="M542.994 298.424L537.306 273.91L548.245 302.48C549.242 304.954 547.722 307.72 545.1 308.202L516.49 314.687L538.875 305.941C542.016 304.914 543.82 301.624 542.994 298.424Z" fill="#00B2C9"/>
<path d="M543.693 324.845L510.252 327.754L509.792 316.263L545.099 308.204L543.693 324.845Z" fill="#54CBDB"/>
<path opacity="0.42" d="M530.74 329.789C531.522 330.144 532.459 339.763 533.152 348.506L546.44 345.482L543.693 324.843L510.252 327.752C510.252 327.752 529.295 329.133 530.74 329.789Z" fill="#00B2C9"/>
<path d="M510.171 324.963C510.171 324.963 504.294 326.873 496.961 319.513C496.178 318.729 496.73 317.381 497.837 317.373L509.708 317.279L510.171 324.963Z" fill="#FFA683"/>
<path d="M544.119 509.091L527.565 508.842C524.408 497.419 508.613 377.036 508.613 377.036L488.012 420.983L498.117 508.794L482.657 508.89C482.657 508.89 458.373 432.988 458.373 417.195C458.373 405.155 470.508 366.218 476.279 348.359L476.742 348.241L498.319 352.17C505.099 353.417 512.07 353.264 518.802 351.731L544.036 345.996L544.084 346.019C546.59 378.982 544.119 509.091 544.119 509.091Z" fill="#007E8F"/>
<path opacity="0.35" d="M544.119 509.088C544.119 509.088 545.312 449.667 545.241 401.511C545.241 401.471 545.241 401.431 545.241 401.392C545.239 400.338 545.238 399.291 545.235 398.249C545.233 397.812 545.232 397.38 545.23 396.947C545.229 396.309 545.227 395.668 545.224 395.034C545.146 374.143 544.826 355.832 544.077 346.021L533.15 348.507V348.508L538.305 508.842L543.91 509.072L544.119 509.088Z" fill="#00626F"/>
<path d="M493.885 508.94L498.119 508.792L488.012 420.981L508.614 377.035L478.469 419.948L493.885 508.94Z" fill="#00626F"/>
<path d="M483.922 508.812C480.218 516.233 462.892 519.848 462.892 519.848C462.892 519.848 461.626 522.037 463.575 524.835C465.525 527.633 483.739 526.09 486.025 525.602C488.311 525.115 489.896 523.279 489.896 523.279C489.896 523.279 491.414 524.957 492.264 525.375C493.115 525.793 497.769 524.903 497.769 524.903C498.889 521.948 497.897 510.62 497.599 508.812H483.922Z" fill="#00626F"/>
<path d="M528.595 508.812C524.891 516.233 507.566 519.848 507.566 519.848C507.566 519.848 506.299 522.037 508.248 524.835C510.198 527.633 528.412 526.09 530.698 525.602C532.984 525.115 534.569 523.279 534.569 523.279C534.569 523.279 536.087 524.957 536.938 525.375C537.79 525.793 542.444 524.903 542.444 524.903C543.563 521.948 542.572 510.62 542.273 508.812H528.595Z" fill="#00626F"/>
<path d="M517.461 233.781V247.65L509.291 253.493L503.781 248.185L503.912 242.497C504.601 242.64 505.312 242.71 506.037 242.71C511.356 242.71 515.833 238.91 517.115 233.756C517.235 233.781 517.343 233.781 517.461 233.781Z" fill="#FFA683"/>
<path d="M520.761 224.832C519.147 223.107 517.274 224.501 517.274 224.501C517.274 224.501 517.248 224.529 517.202 224.581C512.411 223.445 505.731 218.359 505.731 218.359C501.222 221.082 494.583 223.534 494.583 223.534V230.726C494.583 237.346 499.709 242.714 506.032 242.714C511.356 242.714 515.83 238.908 517.113 233.755C521.055 234.299 522.354 226.533 520.761 224.832Z" fill="#FFA683"/>
<path d="M517.484 239.196L517.46 239.184V233.781C521.13 233.852 522.304 226.491 520.761 224.827C519.146 223.105 517.269 224.495 517.269 224.495C517.269 224.495 517.245 224.53 517.199 224.578C512.412 223.439 505.763 220.82 505.763 220.82C499.982 224.227 494.578 223.534 494.578 223.534C492.904 223.13 486.385 220.957 486.646 212.515C486.908 203.99 509.837 194.05 522.52 207.955C527.483 213.381 530.404 236.941 517.484 239.196Z" fill="#00626F"/>
<path d="M506.038 242.71C505.308 242.71 504.602 242.615 503.91 242.477L503.783 248.184L507.333 251.608V244.918C516.488 244.918 517.117 233.756 517.117 233.756C515.835 238.911 511.358 242.71 506.038 242.71Z" fill="#F48260"/>
<path d="M517.271 224.496C517.271 224.496 517.246 224.532 517.2 224.579C516.547 224.426 515.847 224.187 515.134 223.903C515.358 226.802 515.455 234.044 511.555 237.952C510.617 236.745 508.423 234.188 506.378 233.79C504.453 233.415 501.554 233.686 500.058 233.87C499.441 233.947 498.866 234.214 498.414 234.642L496.42 236.525C495.922 235.861 495.459 235.1 495.066 234.199C496.491 239.127 500.86 242.713 506.037 242.713C511.356 242.713 515.833 238.913 517.116 233.759C517.448 233.807 517.769 233.772 518.066 233.699V233.687L517.271 224.496ZM508.02 238.221C503.268 240.436 499.975 238.656 499.092 237.546C498.888 237.289 498.911 236.92 499.134 236.679L499.941 235.801C500.856 234.797 503.809 235.166 505.042 235.166C506.347 235.166 507.33 236.278 508.049 237.04C508.343 237.355 508.388 238.049 508.02 238.221Z" fill="#00626F"/>
<path d="M377.325 508.795C375.278 448.112 367.268 336.974 367.268 336.974H306.756C306.756 336.974 298.744 448.112 296.7 508.795H313.916C313.916 508.795 333.468 378.263 337.26 366.316C341.053 378.263 360.11 508.795 360.11 508.795H377.325Z" fill="#007E8F"/>
<path d="M298.622 508.812C294.918 516.233 277.593 519.848 277.593 519.848C277.593 519.848 276.326 522.037 278.276 524.835C280.227 527.633 298.439 526.09 300.725 525.602C303.011 525.115 304.597 523.279 304.597 523.279C304.597 523.279 306.112 524.957 306.964 525.375C307.816 525.793 312.47 524.903 312.47 524.903C313.589 521.948 312.597 510.62 312.299 508.812H298.622Z" fill="#00626F"/>
<path d="M375.138 508.812C378.842 516.233 396.167 519.848 396.167 519.848C396.167 519.848 397.434 522.037 395.484 524.835C393.535 527.633 375.321 526.09 373.036 525.602C370.75 525.115 369.165 523.279 369.165 523.279C369.165 523.279 367.648 524.957 366.796 525.375C365.944 525.793 361.29 524.903 361.29 524.903C360.171 521.948 361.163 510.62 361.461 508.812H375.138Z" fill="#00626F"/>
<path d="M349.725 240.837L345.62 239.644H339.255H337.509H331.144L327.039 240.837L316.812 336.633H337.509H339.255H359.952L349.725 240.837Z" fill="white"/>
<path d="M327.039 240.836C327.039 240.836 301.64 247.91 297.549 253.791C293.723 259.29 279.071 289.358 280.052 307.26C280.158 309.202 281.883 310.649 283.811 310.393L303.175 306.122L296.186 344.731C296.186 344.731 316.129 348.736 327.379 348.055L327.039 240.836Z" fill="#00B2C9"/>
<path d="M349.725 240.836C349.725 240.836 375.124 247.91 379.215 253.791C383.04 259.29 398.084 288.157 397.105 306.059C396.998 308.001 395.273 309.448 393.345 309.193L373.589 306.122L380.579 344.731C380.579 344.731 360.792 349.248 349.541 348.565L349.725 240.836Z" fill="#00B2C9"/>
<path d="M345.565 249.567L338.46 245.608L331.867 249.567L336.074 255.38C336.074 255.38 332.052 314.778 331.898 321.12C331.875 322.073 334.384 325.179 336.673 327.806C337.305 328.533 337.922 329.224 338.462 329.82C339.001 329.222 339.618 328.533 340.25 327.806C342.539 325.179 345.048 322.073 345.025 321.12C344.868 314.778 341.303 255.608 341.303 255.608L345.565 249.567Z" fill="#54CBDB"/>
<path d="M303.174 306.121L363.006 296.065L359.766 282.172L291.499 288.82L303.174 306.121Z" fill="#00B2C9"/>
<path d="M362.097 294.587C362.097 294.587 370.846 291.746 373.801 292.201C376.756 292.656 375.393 282.484 359.768 282.172L362.097 294.587Z" fill="#FFA683"/>
<path d="M323.441 285.528C323.441 285.528 318.412 280.329 310.571 281.011C306.24 281.388 302.986 287.489 302.986 287.489L323.441 285.528Z" fill="#FFA683"/>
<path opacity="0.35" d="M300.533 320.713L327.146 302.113L303.174 306.121L300.533 320.713Z" fill="#00626F"/>
<path opacity="0.35" d="M302.987 287.489L298.19 287.366L307.909 272.525L302.987 287.489Z" fill="#00626F"/>
<path opacity="0.35" d="M373.992 292.25C373.992 292.25 378.958 292.349 379.484 291.56C380.01 290.773 373.246 274.167 373.246 274.167C373.246 274.167 378.228 290.83 373.992 292.25Z" fill="#00626F"/>
<path opacity="0.35" d="M380.577 344.731L376.619 322.861L373.588 306.121L349.62 301.947L349.616 303.297L367.217 316.048L372.424 346.359C377.19 345.503 380.577 344.731 380.577 344.731Z" fill="#00626F"/>
<path d="M344.757 239.094L338.705 242.776L332.26 239.094V227.016H344.757V239.094Z" fill="#FFA683"/>
<path d="M322.602 217.295C322.602 217.295 320.097 207.943 322.676 203.229C325.254 198.517 329.632 193.282 333.904 196.227C333.904 196.227 336.473 192.856 345.531 195.065C354.59 197.274 359.056 197.337 362.295 195.645C365.536 193.95 363.056 210.595 356.355 211.551C356.355 211.551 355.815 215.896 354.488 217.442C353.163 218.989 336.961 219.799 336.961 219.799L322.602 217.295Z" fill="#00626F"/>
<path d="M335.635 205.146C335.166 204.623 334.248 206.893 332.077 208.778C329.516 211.004 326.083 212.45 326.083 212.45V221.468C326.083 221.468 327.954 233.718 338.985 233.718C348.082 233.718 351.342 221.517 351.342 221.517V213.773V210.962C351.342 210.962 340.496 210.569 335.635 205.146Z" fill="#FFA683"/>
<path d="M344.757 231.809V234.29C343.172 235.435 341.262 236.198 338.985 236.198C336.2 236.198 333.998 235.417 332.262 234.247V231.767C333.996 232.937 336.198 233.718 338.985 233.718C341.259 233.718 343.172 232.954 344.757 231.809Z" fill="#F48260"/>
<path d="M331.313 218.385C331.313 215.953 329.341 213.98 326.908 213.98C324.476 213.98 322.505 215.951 322.505 218.385C322.505 220.817 325.174 223.518 327.606 223.518C330.039 223.518 331.313 220.817 331.313 218.385Z" fill="#FFA683"/>
<path d="M347.139 218.385C347.139 215.953 349.112 213.98 351.544 213.98C353.976 213.98 355.949 215.951 355.949 218.385C355.949 220.817 353.28 223.518 350.848 223.518C348.415 223.518 347.139 220.817 347.139 218.385Z" fill="#FFA683"/>
<path d="M164.963 511.919V521.86C164.963 524.405 163.107 526.468 160.818 526.468H130.739C129.122 526.468 128.495 524.128 129.854 523.152C133.828 520.298 146.981 516.201 151.149 513.356L164.963 511.919Z" fill="#00B2C9"/>
<path d="M173.243 412.779C171.26 439.354 165.963 508.808 164.598 512.702C162.911 517.523 149.613 514.947 150.455 513.557C150.74 513.069 153.269 512.785 155.027 508.961C155.573 507.785 155.384 500.459 155.289 499.177C154.446 487.397 150.148 426.827 148.936 408.576C155.266 410.381 163.791 412.233 173.243 412.779Z" fill="#FFA683"/>
<path d="M185.559 511.919V521.86C185.559 524.405 187.414 526.468 189.704 526.468H219.782C221.399 526.468 222.027 524.128 220.668 523.152C216.693 520.298 203.54 516.201 199.372 513.356L185.559 511.919Z" fill="#00B2C9"/>
<path d="M200.069 513.558C200.901 514.948 187.613 517.525 185.926 512.704C184.572 508.82 179.289 439.592 177.294 412.924C185.095 413.03 193.383 412.175 201.518 409.61C200.211 429.001 196.043 487.614 195.223 499.179C195.14 500.461 194.95 507.788 195.485 508.963C197.243 512.787 199.773 513.071 200.069 513.558Z" fill="#FFA683"/>
<path d="M212.94 404.73C179.632 423.182 137.717 404.73 137.717 404.73C131.47 372.064 137.455 345.869 142.181 331.975L142.204 331.927C142.596 330.751 142.988 329.672 143.356 328.686C144.982 324.34 146.277 321.74 146.574 321.182H146.597C148.402 322.369 170.713 336.346 201.124 321.182H201.705C201.705 321.182 201.693 321.157 201.67 321.122C201.646 321.074 201.622 321.027 201.586 320.944C201.574 320.931 201.574 320.908 201.562 320.896H201.763C217.358 360.437 212.94 404.73 212.94 404.73Z" fill="#00B2C9"/>
<path opacity="0.35" d="M212.94 404.73C206.92 408.055 200.627 410.168 194.345 411.427C202.467 389.601 195.057 340.691 192.339 324.863C195.177 323.9 198.11 322.69 201.125 321.182H201.706C201.706 321.182 201.694 321.157 201.671 321.122C201.648 321.074 201.623 321.027 201.588 320.944C201.576 320.931 201.576 320.908 201.563 320.896H201.765C217.358 360.437 212.94 404.73 212.94 404.73Z" fill="#00626F"/>
<path d="M195.484 508.963C194.951 507.787 195.14 500.461 195.223 499.179C196.055 487.612 200.21 428.988 201.517 409.61C200.538 409.916 199.557 410.185 198.574 410.445C198.052 410.584 197.527 410.711 197.003 410.837C196.431 410.974 195.861 411.103 195.29 411.225C189.198 412.527 183.111 413.002 177.295 412.924C177.342 413.552 177.392 414.213 177.442 414.888C180.817 414.876 189.073 414.764 194.21 414.003C193.418 429.108 189.56 505.737 192.22 510.886C192.98 512.382 195.32 513.652 198.336 514.722C199.56 514.353 200.284 513.915 200.07 513.558C199.772 513.071 197.243 512.787 195.484 508.963Z" fill="#F48260"/>
<path d="M251.042 247.378C251.042 247.378 256.263 239.154 257.829 238.893C259.396 238.631 257.568 242.417 257.568 242.417C257.568 242.417 263.312 238.957 267.423 240.001C271.534 241.045 258.804 247.233 257.173 251.149C257.173 251.149 250.782 247.378 251.042 247.378Z" fill="#FFA683"/>
<path d="M150.124 336.154C150.124 335.486 143.805 330.24 143.37 329.974C143.31 329.891 143.257 329.8 143.196 329.719L139.174 338.119C139.174 338.119 148.897 346.283 149.861 345.479C150.517 344.932 148.196 341.277 146.511 336.333C148.188 336.122 150.124 336.628 150.124 336.154Z" fill="#FFA683"/>
<path d="M203.843 283.052C204.962 285.389 205.863 288.248 205.627 291.166C205.441 293.542 204.5 295.958 202.306 298.152C201.903 298.555 201.539 298.965 201.208 299.394C201.128 299.492 201.051 299.594 200.979 299.695C195.14 307.659 200.678 319.187 201.582 320.946C201.622 321.023 201.651 321.076 201.672 321.116C201.691 321.156 201.702 321.175 201.702 321.175H201.123C170.713 336.343 148.398 322.366 146.592 321.175H146.472C146.472 321.175 146.483 321.156 146.501 321.116C147.002 320.179 153.284 308.001 147.195 299.695C146.806 299.16 146.366 298.648 145.869 298.152C140.989 293.269 142.353 285.434 144.384 281.194L127.508 304.983L143.582 329.011L138.92 338.816C138.92 338.816 106.774 308.357 107.256 306.108C107.739 303.856 132.972 259.174 141.332 253.226C149.688 247.279 166.405 246.475 166.405 246.475H178.62C178.62 246.475 191.078 245.831 201.325 253.065L222.551 274.232L250.262 246.915L257.621 251.377C257.621 251.377 232.589 285.28 223.684 295.434C222.202 297.123 219.633 297.278 217.963 295.775L203.843 283.052Z" fill="#54CBDB"/>
<path d="M222.487 293.078C217.252 297.113 195.105 268.979 198.65 275.152C202.196 281.325 195.892 289.335 190.245 303.125C185.367 315.038 190.482 323.025 191.965 324.98C194.925 323.989 197.978 322.746 201.125 321.177H201.704C201.704 321.177 201.693 321.158 201.674 321.118C201.653 321.078 201.624 321.024 201.584 320.947C200.678 319.189 195.142 307.661 200.981 299.697C201.053 299.595 201.13 299.494 201.21 299.396C201.541 298.967 201.903 298.556 202.308 298.153C204.502 295.959 205.443 293.543 205.629 291.167C205.864 288.249 204.963 285.391 203.845 283.054L217.965 295.776C219.635 297.282 222.204 297.125 223.686 295.435C232.591 285.282 257.623 251.378 257.623 251.378C257.545 250.946 228.349 288.56 222.487 293.078Z" fill="#33C1D4"/>
<path d="M144.386 281.193C144.386 281.193 147.497 271.474 149.534 269.175C149.534 269.175 124.318 301.417 123.136 305.095C121.953 308.772 143.582 329.011 143.582 329.011L127.508 304.982L144.386 281.193Z" fill="#33C1D4"/>
<path d="M144.386 281.193C143.828 282.359 143.327 283.801 142.986 285.374L144.386 281.193Z" fill="#33C1D4"/>
<g opacity="0.25">
<path d="M184.734 246.847H162.252C159.742 247.138 156.361 247.642 152.883 248.492H192.014C189.359 247.636 186.848 247.135 184.734 246.847Z" fill="white"/>
<path d="M250.262 246.915L248.663 248.49H252.862L250.262 246.915Z" fill="white"/>
<path d="M254.681 255.343H241.713L240.045 256.988H253.457C253.895 256.399 254.301 255.855 254.681 255.343Z" fill="white"/>
<path d="M203.61 255.343H139.048C138.587 255.839 138.106 256.379 137.597 256.988H205.26L203.61 255.343Z" fill="white"/>
<path d="M248.331 263.841H233.093L231.425 265.486H247.096C247.514 264.928 247.926 264.38 248.331 263.841Z" fill="white"/>
<path d="M212.131 263.841H132.439C132.064 264.377 131.684 264.925 131.301 265.486H213.779L212.131 263.841Z" fill="white"/>
<path d="M220.653 272.338H126.776C126.427 272.883 126.078 273.432 125.728 273.983H222.302L220.653 272.338Z" fill="white"/>
<path d="M241.915 272.338H224.472L222.804 273.983H240.665C241.083 273.433 241.5 272.886 241.915 272.338Z" fill="white"/>
<path d="M144.386 281.193C144.197 281.59 144.016 282.026 143.842 282.48H234.136C234.557 281.937 234.983 281.388 235.411 280.835H121.475C121.14 281.385 120.81 281.933 120.479 282.48H143.473L144.386 281.193Z" fill="white"/>
<path d="M138.612 289.331H116.411C116.087 289.888 115.768 290.433 115.455 290.976H137.445L138.612 289.331Z" fill="white"/>
<path d="M212.638 290.976H227.414C227.843 290.447 228.284 289.901 228.741 289.331H210.813L212.638 290.976Z" fill="white"/>
<path d="M142.628 290.976H205.633C205.668 290.424 205.662 289.875 205.624 289.331H142.539C142.539 289.878 142.572 290.427 142.628 290.976Z" fill="white"/>
<path d="M132.583 297.829H111.556C111.238 298.399 110.933 298.948 110.646 299.474H131.418L132.583 297.829Z" fill="white"/>
<path d="M145.871 298.152C146.298 298.579 146.675 299.021 147.021 299.474H201.148C201.168 299.448 201.186 299.42 201.208 299.396C201.538 298.967 201.901 298.556 202.306 298.153C202.412 298.047 202.502 297.938 202.602 297.831H145.583C145.682 297.935 145.766 298.049 145.871 298.152Z" fill="white"/>
<path d="M128.407 306.326H107.293C107.387 306.657 107.75 307.219 108.334 307.971H129.506L128.407 306.326Z" fill="white"/>
<path d="M149.828 307.97H198.351C198.364 307.422 198.404 306.875 198.467 306.325H149.714C149.779 306.875 149.814 307.424 149.828 307.97Z" fill="white"/>
<path d="M148.434 316.467H199.746C199.575 315.949 199.414 315.399 199.258 314.822H148.926C148.77 315.399 148.604 315.948 148.434 316.467Z" fill="white"/>
<path d="M134.091 314.823H114.513C115.027 315.358 115.562 315.909 116.107 316.468H135.192L134.091 314.823Z" fill="white"/>
<path d="M154.483 324.965H192.01C193.448 324.483 194.91 323.934 196.393 323.32H150.524C151.631 323.843 152.962 324.409 154.483 324.965Z" fill="white"/>
<path d="M139.775 323.32H122.922C123.478 323.871 124.035 324.42 124.588 324.965H140.874L139.775 323.32Z" fill="white"/>
<path d="M142.248 331.817H131.618C132.213 332.392 132.779 332.938 133.324 333.462H141.467L142.248 331.817Z" fill="white"/>
</g>
<path d="M177.721 247.079L172.094 250.503L166.101 247.079V235.847H177.721V247.079Z" fill="#FFA683"/>
<path d="M177.721 240.302V247.079L176.329 247.924C176.379 247.634 176.428 247.351 176.479 247.074C177.028 243.987 177.499 241.569 177.721 240.302Z" fill="#FFA683"/>
<path d="M183.845 222.228V230.733C183.845 230.733 182.14 237.11 177.721 240.302C178.358 236.697 183.094 226.089 183.845 222.228Z" fill="#FFA683"/>
<path d="M177.721 240.303V242.611C176.246 243.676 174.47 244.385 172.353 244.385C169.763 244.385 167.715 243.658 166.102 242.571V240.265C167.715 241.353 169.763 242.079 172.353 242.079C174.467 242.079 176.246 241.369 177.721 240.303Z" fill="#F48260"/>
<path d="M184.032 223.725C183.967 223.725 183.907 223.74 183.843 223.743V223.53V220.916C183.843 220.916 167.615 221.935 164.675 215.417C164.408 214.822 160.355 222.3 160.355 222.3V223.802C158.461 224.163 157.028 225.822 157.028 227.819C157.028 229.75 158.839 231.85 160.776 232.427C161.733 235.615 164.625 242.077 172.353 242.077C178.658 242.077 181.945 235.778 183.212 232.568C183.272 232.571 183.325 232.593 183.384 232.593C185.646 232.593 188.127 230.082 188.127 227.819C188.127 225.559 186.295 223.725 184.032 223.725Z" fill="#FFA683"/>
<path d="M183.179 232.651C183.191 232.628 183.32 232.593 183.379 232.593C185.645 232.593 188.123 230.079 188.123 227.824C188.123 225.558 186.294 223.728 184.028 223.728C183.969 223.728 183.909 223.74 183.839 223.74V220.919C183.839 220.919 167.611 221.934 164.671 215.42C164.411 214.817 160.351 222.301 160.351 222.301V223.8C158.463 224.166 157.023 225.819 157.023 227.825C157.023 229.749 158.84 231.85 160.775 232.428C161.413 234.553 162.9 238.105 166.098 240.265V245.009C146.574 233.259 148.831 207.682 158.591 202.856C162.969 200.708 165.091 202.462 165.091 202.462C180.392 189 192.807 204.828 196.544 210.867C201.665 219.142 222.35 273.315 200.878 280.604C161.578 293.944 173.947 244.193 177.709 240.317C180.945 236.987 182.836 234.06 183.179 232.651Z" fill="#00626F"/>
<defs>
<linearGradient id="paint0_linear_1_4" x1="373.504" y1="0" x2="373.504" y2="508.611" gradientUnits="userSpaceOnUse">
<stop offset="0.171875" stop-color="#8ADCE6"/>
<stop offset="1" stop-color="#8ADCE6" stop-opacity="0"/>
</linearGradient>
<linearGradient id="paint1_linear_1_4" x1="488.004" y1="-142.189" x2="631.933" y2="91.7792" gradientUnits="userSpaceOnUse">
<stop stop-color="#8ADCE6"/>
<stop offset="1" stop-color="#8ADCE6" stop-opacity="0.2"/>
</linearGradient>
</defs>
</svg>
